<?xml version="1.0" encoding="utf-8"?>
<!-- Generator: Adobe Illustrator 21.1.0, SVG Export Plug-In . SVG Version: 6.00 Build 0)  -->
<svg version="1.1" id="Layer_1" xmlns="http://www.w3.org/2000/svg" xmlns:xlink="http://www.w3.org/1999/xlink" x="0px" y="0px"
	 width="923px" height="340px" viewBox="0 0 923 340" style="enable-background:new 0 0 923 340;" xml:space="preserve">
<style type="text/css">
	.st0{fill:url(#SVGID_1_);}
	.st1{fill:#00A9E5;}
	.st2{fill:#231F20;}
	.st3{fill:#00BFB3;}
	.st4{fill:#019B8F;}
	.st5{fill:#F9B110;}
	.st6{fill:#FED10A;}
	.st7{fill:#444444;}
	.st8{fill:url(#SVGID_2_);}
	.st9{fill:url(#SVGID_3_);}
	.st10{fill:#3EBEB0;}
	.st11{fill:#F04E98;}
	.st12{fill:#0078A0;}
	.st13{fill:url(#SVGID_4_);}
	.st14{fill:#353535;}
	.st15{fill:url(#SVGID_5_);}
</style>
<g>
	<g>
		
			<linearGradient id="SVGID_1_" gradientUnits="userSpaceOnUse" x1="-35.4937" y1="108.2211" x2="-35.4937" y2="107.8809" gradientTransform="matrix(318 0 0 98 11890 -10419)">
			<stop  offset="0" style="stop-color:#00BFB3"/>
			<stop  offset="1" style="stop-color:#31C8FA"/>
		</linearGradient>
		<path class="st0" d="M752,220H454c-6.1,0-11-4.9-11-11v-78c0-6.1,4.9-11,11-11h298c6.1,0,11,4.9,11,11v78
			C763,215.1,758.1,220,752,220z M454,122c-5,0-9,4-9,9v78c0,5,4,9,9,9h298c5,0,9-4,9-9v-78c0-5-4-9-9-9H454z"/>
	</g>
	<path class="st1" d="M501.4,161.9h-14.2c0.1,0.3,0.2,0.6,0.3,1c0.4,1.6,0.7,3.3,0.9,5c0.1,0.7,0.1,1.4,0.1,2.1s0,1.4-0.1,2.1
		c-0.1,1.7-0.4,3.4-0.9,5c-0.1,0.3-0.2,0.6-0.3,1h14.2c4.5,0,8.1-3.6,8.1-8.1S505.9,161.9,501.4,161.9"/>
	<path class="st2" d="M488.4,172.1c0.1-0.7,0.1-1.4,0.1-2.1c0-0.7,0-1.4-0.1-2.1c-0.1-1.7-0.4-3.4-0.9-5c-0.1-0.3-0.2-0.6-0.3-1h-22
		c-0.8,2.6-1.2,5.3-1.2,8.1s0.4,5.5,1.2,8.1h22c0.1-0.3,0.2-0.6,0.3-1C487.9,175.5,488.2,173.8,488.4,172.1"/>
	<path class="st3" d="M503.9,180.8h-17.7c-0.5,1.2-1.1,2.4-1.8,3.5c-1,1.7-2.3,3.2-3.6,4.6c-0.5,0.5-0.9,0.9-1.4,1.3
		c-1,0.9-2,1.7-3.1,2.4c4.3,2.8,9.4,4.5,14.9,4.5c9.4,0,17.7-4.8,22.6-12C511.3,182.4,507.8,180.8,503.9,180.8"/>
	<path class="st4" d="M484.4,184.3c0.7-1.1,1.3-2.3,1.8-3.5h-19.9c2.1,4.8,5.6,8.9,10,11.7c1.1-0.7,2.1-1.5,3.1-2.4
		c0.5-0.4,1-0.9,1.4-1.3C482.1,187.5,483.3,185.9,484.4,184.3"/>
	<path class="st5" d="M480.7,151.2c-0.5-0.5-0.9-0.9-1.4-1.3c-1-0.9-2-1.7-3.1-2.4c-4.4,2.9-7.8,6.9-10,11.7h19.9
		c-0.5-1.2-1.1-2.4-1.8-3.5C483.3,154.1,482.1,152.5,480.7,151.2"/>
	<path class="st6" d="M491.2,143c-5.5,0-10.7,1.6-14.9,4.5c1.1,0.7,2.1,1.5,3.1,2.4c0.5,0.4,1,0.9,1.4,1.3c1.4,1.4,2.6,2.9,3.6,4.6
		c0.7,1.1,1.3,2.3,1.8,3.5h17.7c3.9,0,7.4-1.6,9.9-4.2C508.9,147.8,500.6,143,491.2,143"/>
	<path class="st7" d="M563.9,178h-9.6v-17.1h9.6v1.8h-7.6v5.5h7.1v1.8h-7.1v6.3h7.6V178z M569.4,178h-1.9v-18.2h1.9V178z M581.4,178
		l-0.4-1.8h-0.1c-0.6,0.8-1.3,1.3-1.9,1.6s-1.4,0.4-2.4,0.4c-1.3,0-2.3-0.3-3-1s-1.1-1.6-1.1-2.8c0-2.6,2.1-4,6.2-4.1l2.2-0.1v-0.8
		c0-1-0.2-1.8-0.7-2.2s-1.1-0.7-2.1-0.7c-1.1,0-2.3,0.3-3.6,1L574,166c0.6-0.3,1.3-0.6,2.1-0.8s1.5-0.3,2.3-0.3c1.5,0,2.7,0.3,3.4,1
		s1.1,1.8,1.1,3.3v8.8H581.4z M577,176.6c1.2,0,2.2-0.3,2.9-1s1-1.6,1-2.8v-1.2l-1.9,0.1c-1.5,0.1-2.7,0.3-3.3,0.7s-1,1.1-1,2
		c0,0.7,0.2,1.2,0.6,1.6S576.2,176.6,577,176.6z M595.1,174.5c0,1.2-0.4,2.1-1.3,2.8s-2.1,1-3.8,1s-3-0.3-4-0.8v-1.8
		c0.6,0.3,1.3,0.6,2,0.7s1.4,0.3,2,0.3c1,0,1.8-0.2,2.3-0.5s0.8-0.8,0.8-1.5c0-0.5-0.2-0.9-0.7-1.3s-1.3-0.8-2.5-1.3
		c-1.2-0.4-2-0.8-2.5-1.2s-0.9-0.7-1.1-1.1s-0.4-0.9-0.4-1.5c0-1,0.4-1.9,1.3-2.5s2-0.9,3.5-0.9c1.4,0,2.7,0.3,4.1,0.8l-0.7,1.6
		c-1.3-0.5-2.5-0.8-3.5-0.8c-0.9,0-1.6,0.1-2.1,0.4s-0.7,0.7-0.7,1.2c0,0.3,0.1,0.6,0.3,0.9s0.5,0.5,0.8,0.7s1.1,0.5,2.2,0.9
		c1.5,0.6,2.6,1.1,3.1,1.7S595.1,173.6,595.1,174.5z M602.4,176.6c0.3,0,0.7,0,1-0.1s0.6-0.1,0.8-0.2v1.5c-0.2,0.1-0.5,0.2-0.9,0.3
		s-0.8,0.1-1.1,0.1c-2.5,0-3.7-1.3-3.7-3.9v-7.6h-1.8v-0.9l1.8-0.8l0.8-2.7h1.1v3h3.7v1.5h-3.7v7.6c0,0.8,0.2,1.4,0.6,1.8
		S601.8,176.6,602.4,176.6z M608.7,178h-1.9v-12.8h1.9V178z M606.6,161.7c0-0.4,0.1-0.8,0.3-1s0.5-0.3,0.8-0.3s0.6,0.1,0.8,0.3
		s0.3,0.5,0.3,1s-0.1,0.8-0.3,1s-0.5,0.3-0.8,0.3s-0.6-0.1-0.8-0.3S606.6,162.1,606.6,161.7z M618,178.2c-1.9,0-3.3-0.6-4.3-1.7
		s-1.5-2.8-1.5-4.9c0-2.1,0.5-3.8,1.6-5s2.5-1.8,4.4-1.8c0.6,0,1.2,0.1,1.9,0.2s1.1,0.3,1.5,0.5l-0.6,1.7c-0.4-0.2-0.9-0.3-1.4-0.4
		s-1-0.2-1.3-0.2c-2.6,0-3.9,1.7-3.9,5c0,1.6,0.3,2.8,1,3.6s1.6,1.3,2.8,1.3c1.1,0,2.2-0.2,3.3-0.7v1.7
		C620.3,178,619.3,178.2,618,178.2z M632.5,174.5c0,1.2-0.4,2.1-1.3,2.8s-2.1,1-3.8,1s-3-0.3-4-0.8v-1.8c0.6,0.3,1.3,0.6,2,0.7
		s1.4,0.3,2,0.3c1,0,1.8-0.2,2.3-0.5s0.8-0.8,0.8-1.5c0-0.5-0.2-0.9-0.7-1.3s-1.3-0.8-2.5-1.3c-1.2-0.4-2-0.8-2.5-1.2
		s-0.9-0.7-1.1-1.1s-0.4-0.9-0.4-1.5c0-1,0.4-1.9,1.3-2.5s2-0.9,3.5-0.9c1.4,0,2.7,0.3,4.1,0.8l-0.7,1.6c-1.3-0.5-2.5-0.8-3.5-0.8
		c-0.9,0-1.6,0.1-2.1,0.4s-0.7,0.7-0.7,1.2c0,0.3,0.1,0.6,0.3,0.9s0.5,0.5,0.8,0.7s1.1,0.5,2.2,0.9c1.5,0.6,2.6,1.1,3.1,1.7
		S632.5,173.6,632.5,174.5z M641.1,178.2c-1.9,0-3.4-0.6-4.5-1.7s-1.6-2.8-1.6-4.8c0-2.1,0.5-3.7,1.5-4.9s2.4-1.8,4.1-1.8
		c1.6,0,2.9,0.5,3.8,1.6s1.4,2.5,1.4,4.2v1.2H637c0,1.5,0.4,2.7,1.1,3.4s1.7,1.2,3.1,1.2c1.4,0,2.8-0.3,4.1-0.9v1.7
		c-0.7,0.3-1.3,0.5-2,0.6S642,178.2,641.1,178.2z M640.6,166.6c-1,0-1.9,0.3-2.5,1s-1,1.6-1.1,2.8h6.7c0-1.2-0.3-2.2-0.8-2.8
		S641.6,166.6,640.6,166.6z M657.1,178l-0.4-1.8h-0.1c-0.6,0.8-1.3,1.3-1.9,1.6s-1.4,0.4-2.4,0.4c-1.3,0-2.3-0.3-3-1
		s-1.1-1.6-1.1-2.8c0-2.6,2.1-4,6.2-4.1l2.2-0.1v-0.8c0-1-0.2-1.8-0.7-2.2s-1.1-0.7-2.1-0.7c-1.1,0-2.3,0.3-3.6,1l-0.6-1.5
		c0.6-0.3,1.3-0.6,2.1-0.8s1.5-0.3,2.3-0.3c1.5,0,2.7,0.3,3.4,1s1.1,1.8,1.1,3.3v8.8L657.1,178L657.1,178z M652.7,176.6
		c1.2,0,2.2-0.3,2.9-1s1-1.6,1-2.8v-1.2l-1.9,0.1c-1.5,0.1-2.7,0.3-3.3,0.7s-1,1.1-1,2c0,0.7,0.2,1.2,0.6,1.6
		S651.9,176.6,652.7,176.6z M668.4,164.9c0.6,0,1.1,0,1.5,0.1l-0.3,1.8c-0.5-0.1-1-0.2-1.4-0.2c-1,0-1.9,0.4-2.7,1.3
		s-1.1,1.9-1.1,3.2v6.9h-1.9v-12.8h1.6l0.2,2.4h0.1c0.5-0.8,1.1-1.5,1.7-1.9S667.6,164.9,668.4,164.9z M677,178.2
		c-1.9,0-3.3-0.6-4.3-1.7s-1.5-2.8-1.5-4.9c0-2.1,0.5-3.8,1.6-5s2.5-1.8,4.4-1.8c0.6,0,1.2,0.1,1.9,0.2s1.1,0.3,1.5,0.5l-0.6,1.7
		c-0.4-0.2-0.9-0.3-1.4-0.4s-1-0.2-1.3-0.2c-2.6,0-3.9,1.7-3.9,5c0,1.6,0.3,2.8,1,3.6s1.6,1.3,2.8,1.3c1.1,0,2.2-0.2,3.3-0.7v1.7
		C679.3,178,678.3,178.2,677,178.2z M692,178v-8.3c0-1-0.2-1.8-0.7-2.3s-1.2-0.8-2.2-0.8c-1.4,0-2.3,0.4-3,1.1s-0.9,1.9-0.9,3.6v6.7
		h-1.9v-18.2h1.9v5.5c0,0.7,0,1.2-0.1,1.7h0.1c0.4-0.6,0.9-1.1,1.6-1.5s1.5-0.5,2.4-0.5c1.6,0,2.7,0.4,3.5,1.1s1.2,1.9,1.2,3.6v8.4
		H692V178z"/>
	<g>
		
			<linearGradient id="SVGID_2_" gradientUnits="userSpaceOnUse" x1="-35.4937" y1="108.2211" x2="-35.4937" y2="107.8809" gradientTransform="matrix(318 0 0 98 11890 -10299)">
			<stop  offset="0" style="stop-color:#00BFB3"/>
			<stop  offset="1" style="stop-color:#31C8FA"/>
		</linearGradient>
		<path class="st8" d="M752,340H454c-6.1,0-11-4.9-11-11v-78c0-6.1,4.9-11,11-11h298c6.1,0,11,4.9,11,11v78
			C763,335.1,758.1,340,752,340z M454,242c-5,0-9,4-9,9v78c0,5,4,9,9,9h298c5,0,9-4,9-9v-78c0-5-4-9-9-9H454z"/>
	</g>
	<path class="st6" d="M475.8,265h-7.5v27.5h22.5V280C490.8,272,483.8,265,475.8,265"/>
	<path class="st2" d="M468.2,295.6c0,10.9,11.6,19.4,22.5,19.4v-22.5h-22.5V295.6z"/>
	<polygon class="st3" points="495.8,315 510.8,315 510.8,292.5 495.8,292.5 	"/>
	<polygon class="st4" points="490.8,315 495.8,315 495.8,292.5 490.8,292.5 	"/>
	<path class="st7" d="M554.4,298v-17.1h2v15.3h7.6v1.8L554.4,298L554.4,298z M577.6,291.6c0,2.1-0.5,3.7-1.6,4.9s-2.5,1.8-4.4,1.8
		c-1.1,0-2.2-0.3-3.1-0.8s-1.6-1.3-2.1-2.3s-0.7-2.2-0.7-3.5c0-2.1,0.5-3.7,1.6-4.9s2.5-1.8,4.4-1.8c1.8,0,3.2,0.6,4.3,1.8
		S577.6,289.5,577.6,291.6z M567.8,291.6c0,1.6,0.3,2.9,1,3.8s1.6,1.3,2.9,1.3s2.2-0.4,2.9-1.3s1-2.1,1-3.8c0-1.6-0.3-2.9-1-3.7
		s-1.6-1.3-2.9-1.3c-1.3,0-2.2,0.4-2.9,1.3S567.8,289.9,567.8,291.6z M591.5,285.2v1.2l-2.4,0.3c0.2,0.3,0.4,0.6,0.6,1.1
		s0.3,0.9,0.3,1.5c0,1.3-0.4,2.3-1.3,3s-2,1.1-3.5,1.1c-0.4,0-0.7,0-1.1-0.1c-0.8,0.4-1.2,1-1.2,1.7c0,0.4,0.1,0.6,0.4,0.8
		s0.8,0.3,1.5,0.3h2.3c1.4,0,2.5,0.3,3.2,0.9s1.1,1.4,1.1,2.6c0,1.4-0.6,2.5-1.7,3.3s-2.8,1.1-5,1.1c-1.7,0-3-0.3-3.9-0.9
		s-1.4-1.5-1.4-2.6c0-0.8,0.2-1.5,0.8-2s1.2-1,2.1-1.2c-0.3-0.1-0.6-0.4-0.8-0.7s-0.3-0.7-0.3-1.1c0-0.5,0.1-0.9,0.4-1.2
		s0.6-0.7,1.2-1c-0.7-0.3-1.2-0.7-1.6-1.4s-0.6-1.4-0.6-2.2c0-1.4,0.4-2.5,1.3-3.3s2-1.1,3.6-1.1c0.7,0,1.3,0.1,1.8,0.2h4.2V285.2z
		 M581.3,300.2c0,0.7,0.3,1.2,0.9,1.6s1.4,0.5,2.5,0.5c1.6,0,2.8-0.2,3.6-0.7s1.2-1.2,1.2-2c0-0.7-0.2-1.2-0.6-1.4s-1.2-0.4-2.4-0.4
		h-2.3c-0.9,0-1.6,0.2-2.1,0.6S581.3,299.4,581.3,300.2z M582.3,289.3c0,0.9,0.3,1.6,0.8,2s1.2,0.7,2.1,0.7c1.9,0,2.8-0.9,2.8-2.8
		s-1-2.9-2.9-2.9c-0.9,0-1.6,0.2-2.1,0.7S582.3,288.3,582.3,289.3z M602.4,294.5c0,1.2-0.4,2.1-1.3,2.8s-2.1,1-3.8,1s-3-0.3-4-0.8
		v-1.8c0.6,0.3,1.3,0.6,2,0.7s1.4,0.3,2,0.3c1,0,1.8-0.2,2.3-0.5s0.8-0.8,0.8-1.5c0-0.5-0.2-0.9-0.7-1.3s-1.3-0.8-2.5-1.3
		c-1.2-0.4-2-0.8-2.5-1.2s-0.9-0.7-1.1-1.1s-0.4-0.9-0.4-1.5c0-1,0.4-1.9,1.3-2.5s2-0.9,3.5-0.9c1.4,0,2.7,0.3,4.1,0.8l-0.7,1.6
		c-1.3-0.5-2.5-0.8-3.5-0.8c-0.9,0-1.6,0.1-2.1,0.4s-0.7,0.7-0.7,1.2c0,0.3,0.1,0.6,0.3,0.9s0.5,0.5,0.8,0.7s1.1,0.5,2.2,0.9
		c1.5,0.6,2.6,1.1,3.1,1.7S602.4,293.6,602.4,294.5z M609.8,296.6c0.3,0,0.7,0,1-0.1s0.6-0.1,0.8-0.2v1.5c-0.2,0.1-0.5,0.2-0.9,0.3
		s-0.8,0.1-1.1,0.1c-2.5,0-3.7-1.3-3.7-3.9v-7.6h-1.8v-0.9l1.8-0.8l0.8-2.7h1.1v3h3.7v1.5h-3.7v7.6c0,0.8,0.2,1.4,0.6,1.8
		S609.1,296.6,609.8,296.6z M622,298l-0.4-1.8h-0.1c-0.6,0.8-1.3,1.3-1.9,1.6s-1.4,0.4-2.4,0.4c-1.3,0-2.3-0.3-3-1s-1.1-1.6-1.1-2.8
		c0-2.6,2.1-4,6.2-4.1l2.2-0.1v-0.8c0-1-0.2-1.8-0.7-2.2s-1.1-0.7-2.1-0.7c-1.1,0-2.3,0.3-3.6,1l-0.6-1.5c0.6-0.3,1.3-0.6,2.1-0.8
		s1.5-0.3,2.3-0.3c1.5,0,2.7,0.3,3.4,1s1.1,1.8,1.1,3.3v8.8H622z M617.6,296.6c1.2,0,2.2-0.3,2.9-1s1-1.6,1-2.8v-1.2l-1.9,0.1
		c-1.5,0.1-2.7,0.3-3.3,0.7s-1,1.1-1,2c0,0.7,0.2,1.2,0.6,1.6S616.8,296.6,617.6,296.6z M635.7,294.5c0,1.2-0.4,2.1-1.3,2.8
		s-2.1,1-3.8,1s-3-0.3-4-0.8v-1.8c0.6,0.3,1.3,0.6,2,0.7s1.4,0.3,2,0.3c1,0,1.8-0.2,2.3-0.5s0.8-0.8,0.8-1.5c0-0.5-0.2-0.9-0.7-1.3
		s-1.3-0.8-2.5-1.3c-1.2-0.4-2-0.8-2.5-1.2s-0.9-0.7-1.1-1.1s-0.4-0.9-0.4-1.5c0-1,0.4-1.9,1.3-2.5s2-0.9,3.5-0.9
		c1.4,0,2.7,0.3,4.1,0.8l-0.7,1.6c-1.3-0.5-2.5-0.8-3.5-0.8c-0.9,0-1.6,0.1-2.1,0.4s-0.7,0.7-0.7,1.2c0,0.3,0.1,0.6,0.3,0.9
		s0.5,0.5,0.8,0.7s1.1,0.5,2.2,0.9c1.5,0.6,2.6,1.1,3.1,1.7S635.7,293.6,635.7,294.5z M647.7,298v-8.3c0-1-0.2-1.8-0.7-2.3
		s-1.2-0.8-2.2-0.8c-1.4,0-2.3,0.4-3,1.1s-0.9,1.9-0.9,3.6v6.7H639v-18.2h1.9v5.5c0,0.7,0,1.2-0.1,1.7h0.1c0.4-0.6,0.9-1.1,1.6-1.5
		s1.5-0.5,2.4-0.5c1.6,0,2.7,0.4,3.5,1.1s1.2,1.9,1.2,3.6v8.4h-1.9V298z"/>
	<g>
		
			<linearGradient id="SVGID_3_" gradientUnits="userSpaceOnUse" x1="-35.4937" y1="108.2211" x2="-35.4937" y2="107.8809" gradientTransform="matrix(318 0 0 98 11890 -10539)">
			<stop  offset="0" style="stop-color:#00BFB3"/>
			<stop  offset="1" style="stop-color:#31C8FA"/>
		</linearGradient>
		<path class="st9" d="M752,100H454c-6.1,0-11-4.9-11-11V11c0-6.1,4.9-11,11-11h298c6.1,0,11,4.9,11,11v78
			C763,95.1,758.1,100,752,100z M454,2c-5,0-9,4-9,9v78c0,5,4,9,9,9h298c5,0,9-4,9-9V11c0-5-4-9-9-9H454z"/>
	</g>
	<path class="st4" d="M489.2,47.8L470.8,70v5h2.3l20.6-24.7C492.3,49.4,490.8,48.6,489.2,47.8"/>
	<path class="st10" d="M493.7,50.3L473.1,75h35.2C508.2,64.9,502.5,56,493.7,50.3"/>
	<path class="st2" d="M470.8,70l18.5-22.2c-5.5-2.6-11.8-14.1-18.5-14.1V70z"/>
	<path class="st11" d="M470.8,25v18.8c6.7,0,13,1.5,18.5,4.1l19-22.8L470.8,25L470.8,25z"/>
	<path class="st7" d="M566.7,58h-2.3l-6.2-8.3l-1.8,1.6V58h-2V40.9h2v8.5l7.8-8.5h2.4l-6.9,7.4L566.7,58z M570.7,58h-1.9V45.2h1.9
		V58z M568.6,41.7c0-0.4,0.1-0.8,0.3-1s0.5-0.3,0.8-0.3s0.6,0.1,0.8,0.3s0.3,0.5,0.3,1s-0.1,0.8-0.3,1S570,43,569.7,43
		s-0.6-0.1-0.8-0.3S568.6,42.1,568.6,41.7z M580.8,44.9c1.7,0,3,0.6,3.9,1.7s1.4,2.8,1.4,4.9s-0.5,3.7-1.4,4.9s-2.2,1.8-3.9,1.8
		c-0.8,0-1.6-0.2-2.3-0.5s-1.3-0.8-1.7-1.4h-0.1l-0.4,1.7h-1.4V39.8h1.9v4.4c0,1,0,1.9-0.1,2.7h0.1
		C577.7,45.6,579.1,44.9,580.8,44.9z M580.6,46.6c-1.3,0-2.3,0.4-2.9,1.1s-0.9,2-0.9,3.8s0.3,3.1,0.9,3.9s1.6,1.2,2.9,1.2
		c1.2,0,2.1-0.4,2.7-1.3s0.9-2.1,0.9-3.8s-0.3-2.9-0.9-3.7S581.8,46.6,580.6,46.6z M597.5,58l-0.4-1.8H597c-0.6,0.8-1.3,1.3-1.9,1.6
		s-1.4,0.4-2.4,0.4c-1.3,0-2.3-0.3-3-1s-1.1-1.6-1.1-2.8c0-2.6,2.1-4,6.2-4.1l2.2-0.1v-0.8c0-1-0.2-1.8-0.7-2.2s-1.1-0.7-2.1-0.7
		c-1.1,0-2.3,0.3-3.6,1L590,46c0.6-0.3,1.3-0.6,2.1-0.8s1.5-0.3,2.3-0.3c1.5,0,2.7,0.3,3.4,1s1.1,1.8,1.1,3.3V58H597.5z M593.1,56.6
		c1.2,0,2.2-0.3,2.9-1s1-1.6,1-2.8v-1.2l-1.9,0.1c-1.5,0.1-2.7,0.3-3.3,0.7s-1,1.1-1,2c0,0.7,0.2,1.2,0.6,1.6S592.3,56.6,593.1,56.6
		z M611.7,58v-8.3c0-1-0.2-1.8-0.7-2.3s-1.2-0.8-2.2-0.8c-1.3,0-2.3,0.4-3,1.1s-0.9,1.9-0.9,3.6V58H603V45.2h1.6l0.3,1.8h0.1
		c0.4-0.6,1-1.1,1.7-1.5s1.5-0.5,2.4-0.5c1.5,0,2.7,0.4,3.5,1.1s1.2,1.9,1.2,3.6V58H611.7z M625.5,58l-0.4-1.8H625
		c-0.6,0.8-1.3,1.3-1.9,1.6s-1.4,0.4-2.4,0.4c-1.3,0-2.3-0.3-3-1s-1.1-1.6-1.1-2.8c0-2.6,2.1-4,6.2-4.1l2.2-0.1v-0.8
		c0-1-0.2-1.8-0.7-2.2s-1.1-0.7-2.1-0.7c-1.1,0-2.3,0.3-3.6,1L618,46c0.6-0.3,1.3-0.6,2.1-0.8s1.5-0.3,2.3-0.3c1.5,0,2.7,0.3,3.4,1
		s1.1,1.8,1.1,3.3V58H625.5z M621.2,56.6c1.2,0,2.2-0.3,2.9-1s1-1.6,1-2.8v-1.2l-1.9,0.1c-1.5,0.1-2.7,0.3-3.3,0.7s-1,1.1-1,2
		c0,0.7,0.2,1.2,0.6,1.6S620.4,56.6,621.2,56.6z"/>
</g>
<g>
	<path class="st12" d="M840.7,148l-10.5,10.5c-2.9,2.9-2.9,7.6,0,10.5l1.8,1.8c2.9,2.9,7.6,2.9,10.5,0l10.5-10.5L840.7,148z"/>
	<g>
		<g>
			
				<linearGradient id="SVGID_4_" gradientUnits="userSpaceOnUse" x1="-30.558" y1="107.1173" x2="-30.558" y2="106.7821" gradientTransform="matrix(138 0 0 338 5070 -35979)">
				<stop  offset="0" style="stop-color:#00BFB3"/>
				<stop  offset="1" style="stop-color:#31C8FA"/>
			</linearGradient>
			<path class="st13" d="M912,340H794c-6.1,0-11-4.9-11-11V11c0-6.1,4.9-11,11-11h118c6.1,0,11,4.9,11,11v318
				C923,335.1,918.1,340,912,340z M794,2c-5,0-9,4-9,9v318c0,5,4,9,9,9h118c5,0,9-4,9-9V11c0-5-4-9-9-9H794z"/>
		</g>
		<path class="st6" d="M865.3,148L853,135.7l10.5-10.5c2.9-2.9,7.6-2.9,10.5,0l1.8,1.8c2.9,2.9,2.9,7.6,0,10.5L865.3,148z"/>
		<path class="st1" d="M863.5,146.2l-21.1-21.1c-2.9-2.9-7.6-2.9-10.5,0l-1.8,1.8c-2.9,2.9-2.9,7.6,0,10.5l10.5,10.5l1.8-1.8
			C848.3,140.4,857.7,140.4,863.5,146.2"/>
		<path class="st14" d="M863.5,146.2c-5.8-5.8-15.2-5.8-21.1,0l-1.8,1.8l12.3,12.3l12.3-12.3L863.5,146.2z"/>
		<path class="st3" d="M875.8,158.5l-7-7l-12.3,12.3l7,7c2.9,2.9,7.6,2.9,10.5,0l1.8-1.8C878.7,166.2,878.7,161.4,875.8,158.5"/>
		<polygon class="st4" points="865.3,148 853,160.3 856.5,163.8 868.8,151.5 		"/>
		<path class="st7" d="M829.8,210h-2.3l-4.6-7.5l-4.7,7.5h-2.1l5.7-9l-5.3-8.2h2.2l4.3,6.8l4.3-6.8h2.1L824,201L829.8,210z
			 M830.8,204.5v-1.8h5.8v1.8H830.8z M850.8,197.9c0,1.7-0.6,3.1-1.8,4s-2.9,1.4-5.1,1.4h-2v6.7h-2v-17.1h4.4
			C848.7,192.9,850.8,194.5,850.8,197.9z M841.9,201.6h1.8c1.8,0,3-0.3,3.8-0.9c0.8-0.6,1.2-1.5,1.2-2.7c0-1.1-0.4-2-1.1-2.5
			s-1.9-0.8-3.5-0.8h-2.2L841.9,201.6L841.9,201.6z M862,210l-0.4-1.8h-0.1c-0.6,0.8-1.3,1.3-1.9,1.6s-1.4,0.4-2.4,0.4
			c-1.3,0-2.3-0.3-3-1s-1.1-1.6-1.1-2.8c0-2.6,2.1-4,6.2-4.1l2.2-0.1v-0.8c0-1-0.2-1.8-0.7-2.2s-1.1-0.7-2.1-0.7
			c-1.1,0-2.3,0.3-3.6,1l-0.6-1.5c0.6-0.3,1.3-0.6,2.1-0.8s1.5-0.3,2.3-0.3c1.5,0,2.7,0.3,3.4,1s1.1,1.8,1.1,3.3v8.8L862,210
			L862,210z M857.6,208.6c1.2,0,2.2-0.3,2.9-1s1-1.6,1-2.8v-1.2l-1.9,0.1c-1.5,0.1-2.7,0.3-3.3,0.7s-1,1.1-1,2
			c0,0.7,0.2,1.2,0.6,1.6S856.8,208.6,857.6,208.6z M872.6,210.2c-1.9,0-3.3-0.6-4.3-1.7s-1.5-2.8-1.5-4.9c0-2.1,0.5-3.8,1.6-5
			s2.5-1.8,4.4-1.8c0.6,0,1.2,0.1,1.9,0.2s1.1,0.3,1.5,0.5l-0.6,1.7c-0.4-0.2-0.9-0.3-1.4-0.4s-1-0.2-1.3-0.2c-2.6,0-3.9,1.7-3.9,5
			c0,1.6,0.3,2.8,1,3.6s1.6,1.3,2.8,1.3c1.1,0,2.2-0.2,3.3-0.7v1.7C875,210,873.9,210.2,872.6,210.2z M880.8,203.4
			c0.3-0.5,0.8-1.1,1.5-1.9l4.1-4.4h2.3l-5.2,5.5l5.6,7.4h-2.4l-4.5-6.1l-1.5,1.3v4.8h-1.9v-18.2h1.9v9.7
			C880.8,201.9,880.8,202.5,880.8,203.4L880.8,203.4z"/>
	</g>
</g>
<g>
	
		<linearGradient id="SVGID_5_" gradientUnits="userSpaceOnUse" x1="-36.2964" y1="106.9789" x2="-36.2964" y2="106.7929" gradientTransform="matrix(-428.5052 0 0 338 -15337.7012 -35979)">
		<stop  offset="0" style="stop-color:#00BFB3"/>
		<stop  offset="1" style="stop-color:#31C8FA"/>
	</linearGradient>
	<path class="st15" d="M374,340H10c-5.5,0-10-4.5-10-10V10C0,4.5,4.5,0,10,0h364c5.5,0,10,4.5,10,10v266h27v-8l20,18l-20,18v-8h-27
		v34C384,335.5,379.5,340,374,340z M10,2c-4.4,0-8,3.6-8,8v320c0,4.4,3.6,8,8,8h364c4.4,0,8-3.6,8-8v-36h31v5.5l15-13.5l-15-13.5
		v5.5h-31V10c0-4.4-3.6-8-8-8H10z"/>
</g>
<path class="st7" d="M55.7,293l-2.1-5.4h-6.9l-2.1,5.4h-2l6.8-17.2h1.7l6.7,17.2H55.7z M53,285.8l-2-5.3c-0.3-0.7-0.5-1.5-0.8-2.5
	c-0.2,0.8-0.4,1.6-0.7,2.5l-2,5.3H53z M65.7,279.9c0.6,0,1.1,0,1.5,0.1l-0.3,1.8c-0.5-0.1-1-0.2-1.4-0.2c-1,0-1.9,0.4-2.7,1.3
	s-1.1,1.9-1.1,3.2v6.9h-1.9v-12.8h1.6l0.2,2.4h0.1c0.5-0.8,1.1-1.5,1.7-1.9S64.9,279.9,65.7,279.9z M74.8,293.2
	c-1.9,0-3.3-0.6-4.3-1.7s-1.5-2.8-1.5-4.9s0.5-3.8,1.6-5s2.5-1.8,4.4-1.8c0.6,0,1.2,0.1,1.9,0.2s1.1,0.3,1.5,0.5l-0.6,1.7
	c-0.4-0.2-0.9-0.3-1.4-0.4s-1-0.2-1.3-0.2c-2.6,0-3.9,1.7-3.9,5c0,1.6,0.3,2.8,1,3.6s1.6,1.3,2.8,1.3c1.1,0,2.2-0.2,3.3-0.7v1.7
	C77.2,293,76.1,293.2,74.8,293.2z M91,288.4c0,1.5-0.5,2.7-1.6,3.5s-2.6,1.3-4.5,1.3c-2,0-3.6-0.3-4.7-0.8v-1.9
	c0.7,0.3,1.5,0.5,2.3,0.7s1.6,0.3,2.5,0.3c1.3,0,2.3-0.3,3-0.8s1-1.2,1-2.1c0-0.6-0.1-1.1-0.4-1.5s-0.6-0.7-1.2-1s-1.4-0.7-2.5-1.1
	c-1.6-0.6-2.7-1.2-3.4-2s-1-1.8-1-3.1c0-1.3,0.5-2.4,1.5-3.2s2.3-1.2,3.9-1.2c1.7,0,3.3,0.3,4.7,0.9l-0.6,1.7
	c-1.4-0.6-2.8-0.9-4.1-0.9c-1.1,0-1.9,0.2-2.5,0.7s-0.9,1.1-0.9,1.9c0,0.6,0.1,1.1,0.3,1.5s0.6,0.7,1.1,1s1.3,0.7,2.4,1
	c1.8,0.6,3,1.3,3.7,2.1S91,287.3,91,288.4z M96.2,293h-1.9v-12.8h1.9V293z M94.1,276.7c0-0.4,0.1-0.8,0.3-1s0.5-0.3,0.8-0.3
	s0.6,0.1,0.8,0.3s0.3,0.5,0.3,1s-0.1,0.8-0.3,1s-0.5,0.3-0.8,0.3s-0.6-0.1-0.8-0.3S94.1,277.1,94.1,276.7z M110.8,280.2v1.2
	l-2.4,0.3c0.2,0.3,0.4,0.6,0.6,1.1s0.3,0.9,0.3,1.5c0,1.3-0.4,2.3-1.3,3s-2,1.1-3.5,1.1c-0.4,0-0.7,0-1.1-0.1
	c-0.8,0.4-1.2,1-1.2,1.7c0,0.4,0.1,0.6,0.4,0.8s0.8,0.3,1.5,0.3h2.3c1.4,0,2.5,0.3,3.2,0.9s1.1,1.4,1.1,2.6c0,1.4-0.6,2.5-1.7,3.3
	s-2.8,1.1-5,1.1c-1.7,0-3-0.3-3.9-0.9s-1.4-1.5-1.4-2.6c0-0.8,0.2-1.5,0.8-2s1.2-1,2.1-1.2c-0.3-0.1-0.6-0.4-0.8-0.7
	s-0.3-0.7-0.3-1.1c0-0.5,0.1-0.9,0.4-1.2s0.6-0.7,1.2-1c-0.7-0.3-1.2-0.7-1.6-1.4s-0.6-1.4-0.6-2.2c0-1.4,0.4-2.5,1.3-3.3
	s2-1.1,3.6-1.1c0.7,0,1.3,0.1,1.8,0.2h4.2V280.2z M100.6,295.2c0,0.7,0.3,1.2,0.9,1.6s1.4,0.5,2.5,0.5c1.6,0,2.8-0.2,3.6-0.7
	s1.2-1.2,1.2-2c0-0.7-0.2-1.2-0.6-1.4s-1.2-0.4-2.4-0.4h-2.3c-0.9,0-1.6,0.2-2.1,0.6S100.6,294.4,100.6,295.2z M101.6,284.3
	c0,0.9,0.3,1.6,0.8,2s1.2,0.7,2.1,0.7c1.9,0,2.8-0.9,2.8-2.8s-1-2.9-2.9-2.9c-0.9,0-1.6,0.2-2.1,0.7S101.6,283.3,101.6,284.3z
	 M122.3,293v-8.3c0-1-0.2-1.8-0.7-2.3s-1.2-0.8-2.2-0.8c-1.4,0-2.3,0.4-3,1.1s-0.9,1.9-0.9,3.6v6.7h-1.9v-18.2h1.9v5.5
	c0,0.7,0,1.2-0.1,1.7h0.1c0.4-0.6,0.9-1.1,1.6-1.5s1.5-0.5,2.4-0.5c1.6,0,2.7,0.4,3.5,1.1s1.2,1.9,1.2,3.6v8.4h-1.9V293z
	 M132.3,291.6c0.3,0,0.7,0,1-0.1s0.6-0.1,0.8-0.2v1.5c-0.2,0.1-0.5,0.2-0.9,0.3s-0.8,0.1-1.1,0.1c-2.5,0-3.7-1.3-3.7-3.9v-7.6h-1.8
	v-0.9l1.8-0.8l0.8-2.7h1.1v3h3.7v1.5h-3.7v7.6c0,0.8,0.2,1.4,0.6,1.8S131.7,291.6,132.3,291.6z M152.9,288.4c0,1.5-0.5,2.7-1.6,3.5
	s-2.6,1.3-4.5,1.3c-2,0-3.6-0.3-4.7-0.8v-1.9c0.7,0.3,1.5,0.5,2.3,0.7s1.6,0.3,2.5,0.3c1.3,0,2.3-0.3,3-0.8s1-1.2,1-2.1
	c0-0.6-0.1-1.1-0.4-1.5s-0.6-0.7-1.2-1s-1.4-0.7-2.5-1.1c-1.6-0.6-2.7-1.2-3.4-2s-1-1.8-1-3.1c0-1.3,0.5-2.4,1.5-3.2
	s2.3-1.2,3.9-1.2c1.7,0,3.3,0.3,4.7,0.9l-0.6,1.7c-1.4-0.6-2.8-0.9-4.1-0.9c-1.1,0-1.9,0.2-2.5,0.7s-0.9,1.1-0.9,1.9
	c0,0.6,0.1,1.1,0.3,1.5s0.6,0.7,1.1,1s1.3,0.7,2.4,1c1.8,0.6,3,1.3,3.7,2.1S152.9,287.3,152.9,288.4z M172.4,293v-8.4
	c0-1-0.2-1.8-0.7-2.3s-1.1-0.8-2-0.8c-1.2,0-2.1,0.3-2.7,1s-0.9,1.8-0.9,3.2v7.2h-1.9v-8.4c0-1-0.2-1.8-0.7-2.3s-1.1-0.8-2.1-0.8
	c-1.2,0-2.1,0.4-2.7,1.1s-0.8,1.9-0.8,3.6v6.7H156V280h1.6l0.3,1.8h0.1c0.4-0.6,0.9-1.1,1.6-1.5s1.4-0.5,2.2-0.5
	c2,0,3.3,0.7,3.9,2.2h0.1c0.4-0.7,0.9-1.2,1.7-1.6s1.6-0.6,2.5-0.6c1.5,0,2.5,0.4,3.3,1.1s1.1,1.9,1.1,3.6v8.4L172.4,293L172.4,293z
	 M186.3,293l-0.4-1.8h-0.1c-0.6,0.8-1.3,1.3-1.9,1.6s-1.4,0.4-2.4,0.4c-1.3,0-2.3-0.3-3-1s-1.1-1.6-1.1-2.8c0-2.6,2.1-4,6.2-4.1
	l2.2-0.1v-0.8c0-1-0.2-1.8-0.7-2.2s-1.1-0.7-2.1-0.7c-1.1,0-2.3,0.3-3.6,1l-0.6-1.5c0.6-0.3,1.3-0.6,2.1-0.8s1.5-0.3,2.3-0.3
	c1.5,0,2.7,0.3,3.4,1s1.1,1.8,1.1,3.3v8.8H186.3z M181.9,291.6c1.2,0,2.2-0.3,2.9-1s1-1.6,1-2.8v-1.2l-1.9,0.1
	c-1.5,0.1-2.7,0.3-3.3,0.7s-1,1.1-1,2c0,0.7,0.2,1.2,0.6,1.6S181.1,291.6,181.9,291.6z M197.6,279.9c0.6,0,1.1,0,1.5,0.1l-0.3,1.8
	c-0.5-0.1-1-0.2-1.4-0.2c-1,0-1.9,0.4-2.7,1.3s-1.1,1.9-1.1,3.2v6.9h-1.9v-12.8h1.6l0.2,2.4h0.1c0.5-0.8,1.1-1.5,1.7-1.9
	S196.8,279.9,197.6,279.9z M205.7,291.6c0.3,0,0.7,0,1-0.1s0.6-0.1,0.8-0.2v1.5c-0.2,0.1-0.5,0.2-0.9,0.3s-0.8,0.1-1.1,0.1
	c-2.5,0-3.7-1.3-3.7-3.9v-7.6H200v-0.9l1.8-0.8l0.8-2.7h1.1v3h3.7v1.5h-3.7v7.6c0,0.8,0.2,1.4,0.6,1.8S205.1,291.6,205.7,291.6z
	 M223.9,277.4c-1.9,0-3.4,0.6-4.5,1.9s-1.6,3-1.6,5.2s0.5,4,1.6,5.2s2.5,1.8,4.5,1.8c1.2,0,2.6-0.2,4.1-0.6v1.7
	c-1.2,0.4-2.7,0.7-4.4,0.7c-2.5,0-4.5-0.8-5.8-2.3s-2.1-3.7-2.1-6.5c0-1.8,0.3-3.3,1-4.6s1.6-2.4,2.9-3.1s2.7-1.1,4.4-1.1
	c1.8,0,3.4,0.3,4.7,1l-0.8,1.7C226.5,277.7,225.2,277.4,223.9,277.4z M242.5,286.6c0,2.1-0.5,3.7-1.6,4.9s-2.5,1.8-4.4,1.8
	c-1.1,0-2.2-0.3-3.1-0.8s-1.6-1.3-2.1-2.3s-0.7-2.2-0.7-3.5c0-2.1,0.5-3.7,1.6-4.9s2.5-1.8,4.4-1.8c1.8,0,3.2,0.6,4.3,1.8
	S242.5,284.5,242.5,286.6z M232.7,286.6c0,1.6,0.3,2.9,1,3.8s1.6,1.3,2.9,1.3s2.2-0.4,2.9-1.3s1-2.1,1-3.8c0-1.6-0.3-2.9-1-3.7
	s-1.6-1.3-2.9-1.3c-1.3,0-2.2,0.4-2.9,1.3S232.7,284.9,232.7,286.6z M254.7,293v-8.3c0-1-0.2-1.8-0.7-2.3s-1.2-0.8-2.2-0.8
	c-1.3,0-2.3,0.4-3,1.1s-0.9,1.9-0.9,3.6v6.7H246v-12.8h1.6l0.3,1.8h0.1c0.4-0.6,1-1.1,1.7-1.5s1.5-0.5,2.4-0.5
	c1.5,0,2.7,0.4,3.5,1.1s1.2,1.9,1.2,3.6v8.4h-2.1V293z M269.4,293v-8.3c0-1-0.2-1.8-0.7-2.3s-1.2-0.8-2.2-0.8c-1.3,0-2.3,0.4-3,1.1
	s-0.9,1.9-0.9,3.6v6.7h-1.9v-12.8h1.6l0.3,1.8h0.1c0.4-0.6,1-1.1,1.7-1.5s1.5-0.5,2.4-0.5c1.5,0,2.7,0.4,3.5,1.1s1.2,1.9,1.2,3.6
	v8.4h-2.1V293z M280.8,293.2c-1.9,0-3.4-0.6-4.5-1.7s-1.6-2.8-1.6-4.8c0-2.1,0.5-3.7,1.5-4.9s2.4-1.8,4.1-1.8c1.6,0,2.9,0.5,3.8,1.6
	s1.4,2.5,1.4,4.2v1.2h-8.8c0,1.5,0.4,2.7,1.1,3.4s1.7,1.2,3.1,1.2s2.8-0.3,4.1-0.9v1.7c-0.7,0.3-1.3,0.5-2,0.6
	S281.6,293.2,280.8,293.2z M280.2,281.6c-1,0-1.9,0.3-2.5,1s-1,1.6-1.1,2.8h6.7c0-1.2-0.3-2.2-0.8-2.8S281.3,281.6,280.2,281.6z
	 M293.9,293.2c-1.9,0-3.3-0.6-4.3-1.7s-1.5-2.8-1.5-4.9s0.5-3.8,1.6-5s2.5-1.8,4.4-1.8c0.6,0,1.2,0.1,1.9,0.2s1.1,0.3,1.5,0.5
	l-0.6,1.7c-0.4-0.2-0.9-0.3-1.4-0.4s-1-0.2-1.3-0.2c-2.6,0-3.9,1.7-3.9,5c0,1.6,0.3,2.8,1,3.6s1.6,1.3,2.8,1.3
	c1.1,0,2.2-0.2,3.3-0.7v1.7C296.3,293,295.3,293.2,293.9,293.2z M304.4,291.6c0.3,0,0.7,0,1-0.1s0.6-0.1,0.8-0.2v1.5
	c-0.2,0.1-0.5,0.2-0.9,0.3s-0.8,0.1-1.1,0.1c-2.5,0-3.7-1.3-3.7-3.9v-7.6h-1.8v-0.9l1.8-0.8l0.8-2.7h1.1v3h3.7v1.5h-3.7v7.6
	c0,0.8,0.2,1.4,0.6,1.8S303.8,291.6,304.4,291.6z M319.8,286.6c0,2.1-0.5,3.7-1.6,4.9s-2.5,1.8-4.4,1.8c-1.1,0-2.2-0.3-3.1-0.8
	s-1.6-1.3-2.1-2.3s-0.7-2.2-0.7-3.5c0-2.1,0.5-3.7,1.6-4.9s2.5-1.8,4.4-1.8c1.8,0,3.2,0.6,4.3,1.8S319.8,284.5,319.8,286.6z
	 M310,286.6c0,1.6,0.3,2.9,1,3.8s1.6,1.3,2.9,1.3s2.2-0.4,2.9-1.3s1-2.1,1-3.8c0-1.6-0.3-2.9-1-3.7s-1.6-1.3-2.9-1.3
	s-2.2,0.4-2.9,1.3S310,284.9,310,286.6z M329.1,279.9c0.6,0,1.1,0,1.5,0.1l-0.3,1.8c-0.5-0.1-1-0.2-1.4-0.2c-1,0-1.9,0.4-2.7,1.3
	s-1.1,1.9-1.1,3.2v6.9h-1.9v-12.8h1.6l0.2,2.4h0.1c0.5-0.8,1.1-1.5,1.7-1.9S328.3,279.9,329.1,279.9z M341.3,289.5
	c0,1.2-0.4,2.1-1.3,2.8s-2.1,1-3.8,1c-1.7,0-3-0.3-4-0.8v-1.8c0.6,0.3,1.3,0.6,2,0.7s1.4,0.3,2,0.3c1,0,1.8-0.2,2.3-0.5
	s0.8-0.8,0.8-1.5c0-0.5-0.2-0.9-0.7-1.3s-1.3-0.8-2.5-1.3c-1.2-0.4-2-0.8-2.5-1.2s-0.9-0.7-1.1-1.1s-0.4-0.9-0.4-1.5
	c0-1,0.4-1.9,1.3-2.5s2-0.9,3.5-0.9c1.4,0,2.7,0.3,4.1,0.8l-0.7,1.6c-1.3-0.5-2.5-0.8-3.5-0.8c-0.9,0-1.6,0.1-2.1,0.4
	s-0.7,0.7-0.7,1.2c0,0.3,0.1,0.6,0.3,0.9s0.5,0.5,0.8,0.7s1.1,0.5,2.2,0.9c1.5,0.6,2.6,1.1,3.1,1.7S341.3,288.6,341.3,289.5z"/>
<path class="st1" d="M78.8,73.9L78.8,73.9c-0.5-1.7-1.1-3.3-1.8-4.8l-4.3,1.8c0.3,0.7,0.6,1.4,0.9,2.2c-0.3-0.7-0.6-1.5-0.9-2.2
	L44.4,82.6v6l28.4,11.7l0,0l0,0l0,0c-3.4,7.4-9.3,13.3-16.4,16.3l3.7,3.7c7.2-3.6,13.1-9.8,16.6-17.4l0,0c0.1-0.2,0.2-0.4,0.3-0.7
	c0-0.1,0.1-0.1,0.1-0.2l0,0v-0.1v0.1l22.5,9.3v-5.2l-20.9-8.6c0.1-0.3,0.2-0.5,0.2-0.7h-0.1c1-3.5,1.6-7.3,1.6-11.2
	C80.6,81.6,80,77.6,78.8,73.9L78.8,73.9l20.8-8.7v-5.4L77,69.1C77.7,70.7,78.3,72.3,78.8,73.9z M74.5,95.8
	C74.5,95.8,74.5,95.9,74.5,95.8l-24.2-9.9l24.2-10.2c-0.2-0.8-0.5-1.5-0.7-2.2c0.3,0.7,0.5,1.5,0.7,2.2l1.2-0.5l-1.2,0.5
	c0.9,3.1,1.4,6.5,1.4,10C76,89.2,75.5,92.6,74.5,95.8L74.5,95.8z"/>
<path class="st1" d="M72.7,70.9l4.3-1.8c-3.5-7.9-9.5-14.2-16.8-17.9l-3.6,3.7C63.7,57.9,69.4,63.6,72.7,70.9z"/>
<path class="st1" d="M152.7,70.9l4.3-1.8c-3.5-7.9-9.5-14.2-16.8-17.9l-3.6,3.7C143.7,57.9,149.4,63.6,152.7,70.9z"/>
<path class="st1" d="M158.8,73.9L158.8,73.9c-0.5-1.7-1.1-3.3-1.8-4.8l-4.3,1.8c0.3,0.7,0.6,1.4,0.9,2.2c-0.3-0.7-0.6-1.5-0.9-2.2
	l-28.3,11.7v6l28.4,11.7l0,0l0,0l0,0c-3.4,7.4-9.3,13.3-16.4,16.3l3.7,3.7c7.2-3.6,13.1-9.8,16.6-17.4l0,0c0.1-0.2,0.2-0.4,0.3-0.7
	c0-0.1,0.1-0.1,0.1-0.2l0,0v-0.1v0.1l22.5,9.3v-5.2l-20.9-8.6c0.1-0.3,0.2-0.5,0.2-0.7h-0.1c1-3.5,1.6-7.3,1.6-11.2
	C160.6,81.6,160,77.6,158.8,73.9L158.8,73.9l20.8-8.7v-5.4L157,69.1C157.7,70.7,158.3,72.3,158.8,73.9z M154.5,95.8
	C154.5,95.8,154.5,95.9,154.5,95.8l-24.2-9.9l24.2-10.2c-0.2-0.8-0.5-1.5-0.7-2.2c0.3,0.7,0.5,1.5,0.7,2.2l1.2-0.5l-1.2,0.5
	c0.9,3.1,1.4,6.5,1.4,10C156,89.2,155.5,92.6,154.5,95.8L154.5,95.8z"/>
<path class="st1" d="M232.7,70.9l4.3-1.8c-3.5-7.9-9.5-14.2-16.8-17.9l-3.6,3.7C223.7,57.9,229.4,63.6,232.7,70.9z"/>
<path class="st1" d="M238.8,73.9L238.8,73.9c-0.5-1.7-1.1-3.3-1.8-4.8l-4.3,1.8c0.3,0.7,0.6,1.4,0.9,2.2c-0.3-0.7-0.6-1.5-0.9-2.2
	l-28.3,11.7v6l28.4,11.7l0,0l0,0l0,0c-3.4,7.4-9.3,13.3-16.4,16.3l3.7,3.7c7.2-3.6,13.1-9.8,16.6-17.4l0,0c0.1-0.2,0.2-0.4,0.3-0.7
	c0-0.1,0.1-0.1,0.1-0.2l0,0v-0.1v0.1l22.5,9.3v-5.2l-20.9-8.6c0.1-0.3,0.2-0.5,0.2-0.7h-0.1c1-3.5,1.6-7.3,1.6-11.2
	C240.6,81.6,240,77.6,238.8,73.9L238.8,73.9l20.8-8.7v-5.4L237,69.1C237.7,70.7,238.3,72.3,238.8,73.9z M234.5,95.8
	C234.5,95.8,234.5,95.9,234.5,95.8l-24.2-9.9l24.2-10.2c-0.2-0.8-0.5-1.5-0.7-2.2c0.3,0.7,0.5,1.5,0.7,2.2l1.2-0.5l-1.2,0.5
	c0.9,3.1,1.4,6.5,1.4,10C236,89.2,235.5,92.6,234.5,95.8L234.5,95.8z"/>
<path class="st1" d="M312.7,70.9l4.3-1.8c-3.5-7.9-9.5-14.2-16.8-17.9l-3.6,3.7C303.7,57.9,309.4,63.6,312.7,70.9z"/>
<path class="st1" d="M339.7,65.2v-5.4l-22.6,9.3c0.7,1.5,1.3,3.2,1.8,4.8l0,0c-0.5-1.7-1.1-3.3-1.8-4.8l-4.3,1.8
	c0.3,0.7,0.6,1.4,0.9,2.2c-0.3-0.7-0.6-1.5-0.9-2.2l-28.3,11.7v6l28.4,11.7l0,0l0,0l0,0c-3.4,7.4-9.3,13.3-16.4,16.3l3.7,3.7
	c7.2-3.6,13.1-9.8,16.6-17.4l0,0c0.1-0.2,0.2-0.4,0.3-0.7c0-0.1,0.1-0.1,0.1-0.2l0,0v-0.1v0.1l22.5,9.3v-5.2l-20.9-8.6
	c0.1-0.3,0.2-0.5,0.2-0.7h-0.1c1-3.5,1.6-7.3,1.6-11.2c0-4.1-0.6-8-1.7-11.8l0,0L339.7,65.2z M314.5,95.8
	C314.5,95.8,314.5,95.9,314.5,95.8l-24.2-9.9l24.2-10.2c-0.2-0.8-0.5-1.5-0.7-2.2c0.3,0.7,0.5,1.5,0.7,2.2l1.2-0.5l-1.2,0.5
	c0.9,3.1,1.4,6.5,1.4,10C316,89.2,315.5,92.6,314.5,95.8L314.5,95.8z"/>
<path class="st1" d="M78.8,183.9L78.8,183.9c-0.5-1.7-1.1-3.3-1.8-4.8l-4.3,1.8c0.3,0.7,0.6,1.4,0.9,2.2c-0.3-0.7-0.6-1.5-0.9-2.2
	l-28.3,11.7v6l28.4,11.7l0,0l0,0l0,0c-3.4,7.4-9.3,13.3-16.4,16.3l3.7,3.7c7.2-3.6,13.1-9.8,16.6-17.4l0,0c0.1-0.2,0.2-0.4,0.3-0.7
	c0-0.1,0.1-0.1,0.1-0.2l0,0v-0.1v0.1l22.5,9.3v-5.2l-20.9-8.6c0.1-0.3,0.2-0.5,0.2-0.7h-0.1c1-3.5,1.6-7.3,1.6-11.2
	C80.6,191.6,80,187.6,78.8,183.9L78.8,183.9l20.8-8.7v-5.4L77,179.1C77.7,180.7,78.3,182.3,78.8,183.9z M74.5,205.8
	C74.5,205.8,74.5,205.9,74.5,205.8l-24.2-9.9l24.2-10.2c-0.2-0.8-0.5-1.5-0.7-2.2c0.3,0.7,0.5,1.5,0.7,2.2l1.2-0.5l-1.2,0.5
	c0.9,3.1,1.4,6.5,1.4,10C76,199.2,75.5,202.6,74.5,205.8L74.5,205.8z"/>
<path class="st1" d="M77.1,179.1c-3.5-7.9-9.5-14.2-16.8-17.9l-3.6,3.7c7,3,12.7,8.8,16.1,16L77.1,179.1z"/>
<path class="st1" d="M157.1,179.1c-3.5-7.9-9.5-14.2-16.8-17.9l-3.6,3.7c7,3,12.7,8.8,16.1,16L157.1,179.1z"/>
<path class="st1" d="M158.8,183.9L158.8,183.9c-0.5-1.7-1.1-3.3-1.8-4.8l-4.3,1.8c0.3,0.7,0.6,1.4,0.9,2.2c-0.3-0.7-0.6-1.5-0.9-2.2
	l-28.3,11.7v6l28.4,11.7l0,0l0,0l0,0c-3.4,7.4-9.3,13.3-16.4,16.3l3.7,3.7c7.2-3.6,13.1-9.8,16.6-17.4l0,0c0.1-0.2,0.2-0.4,0.3-0.7
	c0-0.1,0.1-0.1,0.1-0.2l0,0v-0.1v0.1l22.5,9.3v-5.2l-20.9-8.6c0.1-0.3,0.2-0.5,0.2-0.7h-0.1c1-3.5,1.6-7.3,1.6-11.2
	C160.6,191.6,160,187.6,158.8,183.9L158.8,183.9l20.8-8.7v-5.4l-22.6,9.3C157.7,180.7,158.3,182.3,158.8,183.9z M154.5,205.8
	C154.5,205.8,154.5,205.9,154.5,205.8l-24.2-9.9l24.2-10.2c-0.2-0.8-0.5-1.5-0.7-2.2c0.3,0.7,0.5,1.5,0.7,2.2l1.2-0.5l-1.2,0.5
	c0.9,3.1,1.4,6.5,1.4,10C156,199.2,155.5,202.6,154.5,205.8L154.5,205.8z"/>
<path class="st1" d="M237.1,179.1c-3.5-7.9-9.5-14.2-16.8-17.9l-3.6,3.7c7,3,12.7,8.8,16.1,16L237.1,179.1z"/>
<path class="st1" d="M238.8,183.9L238.8,183.9c-0.5-1.7-1.1-3.3-1.8-4.8l-4.3,1.8c0.3,0.7,0.6,1.4,0.9,2.2c-0.3-0.7-0.6-1.5-0.9-2.2
	l-28.3,11.7v6l28.4,11.7l0,0l0,0l0,0c-3.4,7.4-9.3,13.3-16.4,16.3l3.7,3.7c7.2-3.6,13.1-9.8,16.6-17.4l0,0c0.1-0.2,0.2-0.4,0.3-0.7
	c0-0.1,0.1-0.1,0.1-0.2l0,0v-0.1v0.1l22.5,9.3v-5.2l-20.9-8.6c0.1-0.3,0.2-0.5,0.2-0.7h-0.1c1-3.5,1.6-7.3,1.6-11.2
	C240.6,191.6,240,187.6,238.8,183.9L238.8,183.9l20.8-8.7v-5.4l-22.6,9.3C237.7,180.7,238.3,182.3,238.8,183.9z M234.5,205.8
	C234.5,205.8,234.5,205.9,234.5,205.8l-24.2-9.9l24.2-10.2c-0.2-0.8-0.5-1.5-0.7-2.2c0.3,0.7,0.5,1.5,0.7,2.2l1.2-0.5l-1.2,0.5
	c0.9,3.1,1.4,6.5,1.4,10C236,199.2,235.5,202.6,234.5,205.8L234.5,205.8z"/>
<path class="st1" d="M317.1,179.1c-3.5-7.9-9.5-14.2-16.8-17.9l-3.6,3.7c7,3,12.7,8.8,16.1,16L317.1,179.1z"/>
<path class="st1" d="M318.8,183.9L318.8,183.9c-0.5-1.7-1.1-3.3-1.8-4.8l-4.3,1.8c0.3,0.7,0.6,1.4,0.9,2.2c-0.3-0.7-0.6-1.5-0.9-2.2
	l-28.3,11.7v6l28.4,11.7l0,0l0,0l0,0c-3.4,7.4-9.3,13.3-16.4,16.3l3.7,3.7c7.2-3.6,13.1-9.8,16.6-17.4l0,0c0.1-0.2,0.2-0.4,0.3-0.7
	c0-0.1,0.1-0.1,0.1-0.2l0,0v-0.1v0.1l22.5,9.3v-5.2l-20.9-8.6c0.1-0.3,0.2-0.5,0.2-0.7h-0.1c1-3.5,1.6-7.3,1.6-11.2
	C320.6,191.6,320,187.6,318.8,183.9L318.8,183.9l20.8-8.7v-5.4l-22.6,9.3C317.7,180.7,318.3,182.3,318.8,183.9z M314.5,205.8
	C314.5,205.8,314.5,205.9,314.5,205.8l-24.2-9.9l24.2-10.2c-0.2-0.8-0.5-1.5-0.7-2.2c0.3,0.7,0.5,1.5,0.7,2.2l1.2-0.5l-1.2,0.5
	c0.9,3.1,1.4,6.5,1.4,10C316,199.2,315.5,202.6,314.5,205.8L314.5,205.8z"/>
<path d="M411.6,318.9c-1.1,0-2,0.4-2.6,1.1s-1,1.7-1,3s0.3,2.3,0.9,3s1.5,1.1,2.6,1.1c0.7,0,1.5-0.1,2.4-0.4v1
	c-0.7,0.3-1.5,0.4-2.6,0.4c-1.5,0-2.6-0.4-3.4-1.3s-1.2-2.2-1.2-3.8c0-1,0.2-1.9,0.6-2.7s0.9-1.4,1.7-1.8s1.6-0.6,2.6-0.6
	s2,0.2,2.7,0.6l-0.5,1C413.1,319.1,412.4,318.9,411.6,318.9z M421.7,328h-5.6v-10h5.6v1h-4.4v3.2h4.1v1h-4.1v3.7h4.4V328z
	 M425.1,328h-1.2v-10h5.6v1h-4.4v3.7h4.1v1h-4.1V328z"/>
</svg>
