<?xml version="1.0" encoding="utf-8"?>
<!-- Generator: Adobe Illustrator 21.1.0, SVG Export Plug-In . SVG Version: 6.00 Build 0)  -->
<svg version="1.1" id="Layer_1" xmlns="http://www.w3.org/2000/svg" xmlns:xlink="http://www.w3.org/1999/xlink" x="0px" y="0px"
	 width="923px" height="340px" viewBox="0 0 923 340" style="enable-background:new 0 0 923 340;" xml:space="preserve">
<style type="text/css">
	.st0{fill:#00A9E5;}
	.st1{fill:#444444;}
	.st2{fill:#D9D9D9;}
	.st3{fill:url(#SVGID_1_);}
	.st4{fill:url(#SVGID_2_);}
	.st5{fill:url(#SVGID_3_);}
	.st6{fill:#231F20;}
	.st7{fill:#00BFB3;}
	.st8{fill:#019B8F;}
	.st9{fill:#F9B110;}
	.st10{fill:#FED10A;}
	.st11{fill:url(#SVGID_4_);}
	.st12{fill:url(#SVGID_5_);}
	.st13{fill:#3EBEB0;}
	.st14{fill:#F04E98;}
	.st15{fill:url(#SVGID_6_);}
	.st16{fill:#0078A0;}
	.st17{fill:#353535;}
</style>
<g transform="translate(606 46)">
	<path class="st0" d="M-499.4,43.1v-3.7l-15.6-6.5c-0.3,1.1,0,2.5-0.4,3.5L-499.4,43.1z M-534.5,24.9l17.2-7.3
		c-0.3-1.2-0.8-2.3-1.3-3.4l-20.2,8.3v4.3l20.2,8.4c0.5-1,1.7-1.6,2.1-2.7L-534.5,24.9z M-499.4,6.3l-16.1,6.7
		c0.5,1.1,0.9,2.3,1.3,3.4l14.8-6.2V6.3z M-527.4,0.1l-2.6,2.7c5,2.2,9.1,6.3,11.5,11.4l3.1-1.3C-518,7.3-522.2,2.8-527.4,0.1
		 M-530.2,46.8l2.6,2.6c5.3-2.7,9.6-7.3,12.1-13l-3.1-1.3C-520.9,40.5-525.1,44.7-530.2,46.8"/>
	<path class="st0" d="M-516.2,24.8c0,2.5-0.4,5-1,7.2l3.1,1.3c0.8-2.7,1.3-5.5,1.3-8.5c0-2.9-0.4-5.7-1.2-8.4l-3,1.3
		C-516.6,19.9-516.2,22.3-516.2,24.8"/>
	<path class="st0" d="M-515.7,37c0.5-1,1.3-3.2,1.6-4.3l-3.2-0.8c-0.3,1.1-0.7,2.2-1.2,3.2L-515.7,37z M-518.5,14.2
		c0.5,1.1,0.9,2.3,1.3,3.4l3-1.3c-0.4-1.2-0.8-2.3-1.3-3.4L-518.5,14.2z"/>
	<g transform="translate(70)">
		<path class="st0" d="M-499.4,43.1v-3.7l-15.6-6.5c-0.3,1.1,0,2.5-0.4,3.5L-499.4,43.1z M-534.5,24.9l17.2-7.3
			c-0.3-1.2-0.8-2.3-1.3-3.4l-20.2,8.3v4.3l20.2,8.4c0.5-1,1.7-1.6,2.1-2.7L-534.5,24.9z M-499.4,6.3l-16.1,6.7
			c0.5,1.1,0.9,2.3,1.3,3.4l14.8-6.2V6.3z M-527.4,0.1l-2.6,2.7c5,2.2,9.1,6.3,11.5,11.4l3.1-1.3C-518,7.3-522.2,2.8-527.4,0.1
			 M-530.2,46.8l2.6,2.6c5.3-2.7,9.6-7.3,12.1-13l-3.1-1.3C-520.9,40.5-525.1,44.7-530.2,46.8"/>
		<path class="st0" d="M-516.2,24.8c0,2.5-0.4,5-1,7.2l3.1,1.3c0.8-2.7,1.3-5.5,1.3-8.5c0-2.9-0.4-5.7-1.2-8.4l-3,1.3
			C-516.6,19.9-516.2,22.3-516.2,24.8"/>
		<path class="st0" d="M-515.7,37c0.5-1,1.3-3.2,1.6-4.3l-3.2-0.8c-0.3,1.1-0.7,2.2-1.2,3.2L-515.7,37z M-518.5,14.2
			c0.5,1.1,0.9,2.3,1.3,3.4l3-1.3c-0.4-1.2-0.8-2.3-1.3-3.4L-518.5,14.2z"/>
	</g>
	<g transform="translate(140)">
		<path class="st0" d="M-499.4,43.1v-3.7l-15.6-6.5c-0.3,1.1,0,2.5-0.4,3.5L-499.4,43.1z M-534.5,24.9l17.2-7.3
			c-0.3-1.2-0.8-2.3-1.3-3.4l-20.2,8.3v4.3l20.2,8.4c0.5-1,1.7-1.6,2.1-2.7L-534.5,24.9z M-499.4,6.3l-16.1,6.7
			c0.5,1.1,0.9,2.3,1.3,3.4l14.8-6.2V6.3z M-527.4,0.1l-2.6,2.7c5,2.2,9.1,6.3,11.5,11.4l3.1-1.3C-518,7.3-522.2,2.8-527.4,0.1
			 M-530.2,46.8l2.6,2.6c5.3-2.7,9.6-7.3,12.1-13l-3.1-1.3C-520.9,40.5-525.1,44.7-530.2,46.8"/>
		<path class="st0" d="M-516.2,24.8c0,2.5-0.4,5-1,7.2l3.1,1.3c0.8-2.7,1.3-5.5,1.3-8.5c0-2.9-0.4-5.7-1.2-8.4l-3,1.3
			C-516.6,19.9-516.2,22.3-516.2,24.8"/>
		<path class="st0" d="M-515.7,37c0.5-1,1.3-3.2,1.6-4.3l-3.2-0.8c-0.3,1.1-0.7,2.2-1.2,3.2L-515.7,37z M-518.5,14.2
			c0.5,1.1,0.9,2.3,1.3,3.4l3-1.3c-0.4-1.2-0.8-2.3-1.3-3.4L-518.5,14.2z"/>
	</g>
	<g transform="translate(210)">
		<path class="st0" d="M-499.4,43.1v-3.7l-15.6-6.5c-0.3,1.1,0,2.5-0.4,3.5L-499.4,43.1z M-534.5,24.9l17.2-7.3
			c-0.3-1.2-0.8-2.3-1.3-3.4l-20.2,8.3v4.3l20.2,8.4c0.5-1,1.7-1.6,2.1-2.7L-534.5,24.9z M-499.4,6.3l-16.1,6.7
			c0.5,1.1,0.9,2.3,1.3,3.4l14.8-6.2V6.3z M-527.4,0.1l-2.6,2.7c5,2.2,9.1,6.3,11.5,11.4l3.1-1.3C-518,7.3-522.2,2.8-527.4,0.1
			 M-530.2,46.8l2.6,2.6c5.3-2.7,9.6-7.3,12.1-13l-3.1-1.3C-520.9,40.5-525.1,44.7-530.2,46.8"/>
		<path class="st0" d="M-516.2,24.8c0,2.5-0.4,5-1,7.2l3.1,1.3c0.8-2.7,1.3-5.5,1.3-8.5c0-2.9-0.4-5.7-1.2-8.4l-3,1.3
			C-516.6,19.9-516.2,22.3-516.2,24.8"/>
		<path class="st0" d="M-515.7,37c0.5-1,1.3-3.2,1.6-4.3l-3.2-0.8c-0.3,1.1-0.7,2.2-1.2,3.2L-515.7,37z M-518.5,14.2
			c0.5,1.1,0.9,2.3,1.3,3.4l3-1.3c-0.4-1.2-0.8-2.3-1.3-3.4L-518.5,14.2z"/>
	</g>
	<g transform="translate(0 70)">
		<path class="st0" d="M-499.4,43.1v-3.7l-15.6-6.5c-0.3,1.1,0,2.5-0.4,3.5L-499.4,43.1z M-534.5,24.9l17.2-7.3
			c-0.3-1.2-0.8-2.3-1.3-3.4l-20.2,8.3v4.3l20.2,8.4c0.5-1,1.7-1.6,2.1-2.7L-534.5,24.9z M-499.4,6.3l-16.1,6.7
			c0.5,1.1,0.9,2.3,1.3,3.4l14.8-6.2V6.3z M-527.4,0.1l-2.6,2.7c5,2.2,9.1,6.3,11.5,11.4l3.1-1.3C-518,7.3-522.2,2.8-527.4,0.1
			 M-530.2,46.8l2.6,2.6c5.3-2.7,9.6-7.3,12.1-13l-3.1-1.3C-520.9,40.5-525.1,44.7-530.2,46.8"/>
		<path class="st0" d="M-516.2,24.8c0,2.5-0.4,5-1,7.2l3.1,1.3c0.8-2.7,1.3-5.5,1.3-8.5c0-2.9-0.4-5.7-1.2-8.4l-3,1.3
			C-516.6,19.9-516.2,22.3-516.2,24.8"/>
		<path class="st0" d="M-515.7,37c0.5-1,1.3-3.2,1.6-4.3l-3.2-0.8c-0.3,1.1-0.7,2.2-1.2,3.2L-515.7,37z M-518.5,14.2
			c0.5,1.1,0.9,2.3,1.3,3.4l3-1.3c-0.4-1.2-0.8-2.3-1.3-3.4L-518.5,14.2z"/>
	</g>
	<g transform="translate(70 70)">
		<path class="st0" d="M-499.4,43.1v-3.7l-15.6-6.5c-0.3,1.1,0,2.5-0.4,3.5L-499.4,43.1z M-534.5,24.9l17.2-7.3
			c-0.3-1.2-0.8-2.3-1.3-3.4l-20.2,8.3v4.3l20.2,8.4c0.5-1,1.7-1.6,2.1-2.7L-534.5,24.9z M-499.4,6.3l-16.1,6.7
			c0.5,1.1,0.9,2.3,1.3,3.4l14.8-6.2V6.3z M-527.4,0.1l-2.6,2.7c5,2.2,9.1,6.3,11.5,11.4l3.1-1.3C-518,7.3-522.2,2.8-527.4,0.1
			 M-530.2,46.8l2.6,2.6c5.3-2.7,9.6-7.3,12.1-13l-3.1-1.3C-520.9,40.5-525.1,44.7-530.2,46.8"/>
		<path class="st0" d="M-516.2,24.8c0,2.5-0.4,5-1,7.2l3.1,1.3c0.8-2.7,1.3-5.5,1.3-8.5c0-2.9-0.4-5.7-1.2-8.4l-3,1.3
			C-516.6,19.9-516.2,22.3-516.2,24.8"/>
		<path class="st0" d="M-515.7,37c0.5-1,1.3-3.2,1.6-4.3l-3.2-0.8c-0.3,1.1-0.7,2.2-1.2,3.2L-515.7,37z M-518.5,14.2
			c0.5,1.1,0.9,2.3,1.3,3.4l3-1.3c-0.4-1.2-0.8-2.3-1.3-3.4L-518.5,14.2z"/>
	</g>
	<g transform="translate(140 70)">
		<path class="st0" d="M-499.4,43.1v-3.7l-15.6-6.5c-0.3,1.1,0,2.5-0.4,3.5L-499.4,43.1z M-534.5,24.9l17.2-7.3
			c-0.3-1.2-0.8-2.3-1.3-3.4l-20.2,8.3v4.3l20.2,8.4c0.5-1,1.7-1.6,2.1-2.7L-534.5,24.9z M-499.4,6.3l-16.1,6.7
			c0.5,1.1,0.9,2.3,1.3,3.4l14.8-6.2V6.3z M-527.4,0.1l-2.6,2.7c5,2.2,9.1,6.3,11.5,11.4l3.1-1.3C-518,7.3-522.2,2.8-527.4,0.1
			 M-530.2,46.8l2.6,2.6c5.3-2.7,9.6-7.3,12.1-13l-3.1-1.3C-520.9,40.5-525.1,44.7-530.2,46.8"/>
		<path class="st0" d="M-516.2,24.8c0,2.5-0.4,5-1,7.2l3.1,1.3c0.8-2.7,1.3-5.5,1.3-8.5c0-2.9-0.4-5.7-1.2-8.4l-3,1.3
			C-516.6,19.9-516.2,22.3-516.2,24.8"/>
		<path class="st0" d="M-515.7,37c0.5-1,1.3-3.2,1.6-4.3l-3.2-0.8c-0.3,1.1-0.7,2.2-1.2,3.2L-515.7,37z M-518.5,14.2
			c0.5,1.1,0.9,2.3,1.3,3.4l3-1.3c-0.4-1.2-0.8-2.3-1.3-3.4L-518.5,14.2z"/>
	</g>
	<g transform="translate(210 70)">
		<path class="st0" d="M-499.4,43.1v-3.7l-15.6-6.5c-0.3,1.1,0,2.5-0.4,3.5L-499.4,43.1z M-534.5,24.9l17.2-7.3
			c-0.3-1.2-0.8-2.3-1.3-3.4l-20.2,8.3v4.3l20.2,8.4c0.5-1,1.7-1.6,2.1-2.7L-534.5,24.9z M-499.4,6.3l-16.1,6.7
			c0.5,1.1,0.9,2.3,1.3,3.4l14.8-6.2V6.3z M-527.4,0.1l-2.6,2.7c5,2.2,9.1,6.3,11.5,11.4l3.1-1.3C-518,7.3-522.2,2.8-527.4,0.1
			 M-530.2,46.8l2.6,2.6c5.3-2.7,9.6-7.3,12.1-13l-3.1-1.3C-520.9,40.5-525.1,44.7-530.2,46.8"/>
		<path class="st0" d="M-516.2,24.8c0,2.5-0.4,5-1,7.2l3.1,1.3c0.8-2.7,1.3-5.5,1.3-8.5c0-2.9-0.4-5.7-1.2-8.4l-3,1.3
			C-516.6,19.9-516.2,22.3-516.2,24.8"/>
		<path class="st0" d="M-515.7,37c0.5-1,1.3-3.2,1.6-4.3l-3.2-0.8c-0.3,1.1-0.7,2.2-1.2,3.2L-515.7,37z M-518.5,14.2
			c0.5,1.1,0.9,2.3,1.3,3.4l3-1.3c-0.4-1.2-0.8-2.3-1.3-3.4L-518.5,14.2z"/>
	</g>
</g>
<path class="st1" d="M107.2,325l-1.6-4.1h-5.2l-1.6,4.1h-1.5l5.1-12.9h1.3l5.1,12.9H107.2z M105.1,319.6l-1.5-4
	c-0.2-0.5-0.4-1.1-0.6-1.9c-0.1,0.6-0.3,1.2-0.6,1.9l-1.5,4H105.1z M114.7,315.2c0.4,0,0.8,0,1.2,0.1l-0.2,1.4
	c-0.4-0.1-0.8-0.1-1.1-0.1c-0.8,0-1.4,0.3-2,0.9s-0.8,1.4-0.8,2.4v5.2h-1.5v-9.6h1.2l0.2,1.8h0.1c0.4-0.6,0.8-1.1,1.3-1.5
	S114.1,315.2,114.7,315.2z M121.1,325.2c-1.4,0-2.5-0.4-3.2-1.3s-1.1-2.1-1.1-3.6c0-1.6,0.4-2.9,1.2-3.7s1.9-1.3,3.3-1.3
	c0.5,0,0.9,0,1.4,0.1s0.8,0.2,1.1,0.4l-0.4,1.2c-0.3-0.1-0.7-0.2-1.1-0.3s-0.7-0.1-1-0.1c-2,0-2.9,1.2-2.9,3.7
	c0,1.2,0.2,2.1,0.7,2.7s1.2,0.9,2.1,0.9c0.8,0,1.6-0.2,2.5-0.5v1.3C122.9,325,122.1,325.2,121.1,325.2z M133.3,321.6
	c0,1.1-0.4,2-1.2,2.6s-1.9,0.9-3.3,0.9c-1.5,0-2.7-0.2-3.5-0.6v-1.4c0.5,0.2,1.1,0.4,1.7,0.5s1.2,0.2,1.8,0.2c1,0,1.7-0.2,2.2-0.6
	s0.8-0.9,0.8-1.6c0-0.4-0.1-0.8-0.3-1.1s-0.5-0.5-0.9-0.8s-1.1-0.5-1.9-0.8c-1.2-0.4-2-0.9-2.6-1.5s-0.8-1.4-0.8-2.3
	c0-1,0.4-1.8,1.1-2.4s1.7-0.9,3-0.9c1.3,0,2.5,0.2,3.5,0.7l-0.5,1.3c-1.1-0.4-2.1-0.7-3.1-0.7c-0.8,0-1.4,0.2-1.9,0.5
	s-0.7,0.8-0.7,1.4c0,0.4,0.1,0.8,0.2,1.1s0.4,0.5,0.8,0.8s1,0.5,1.8,0.8c1.3,0.5,2.3,1,2.8,1.5S133.3,320.7,133.3,321.6z M137.2,325
	h-1.5v-9.6h1.5V325z M135.6,312.8c0-0.3,0.1-0.6,0.2-0.7s0.4-0.2,0.6-0.2c0.2,0,0.4,0.1,0.6,0.2s0.3,0.4,0.3,0.7s-0.1,0.6-0.3,0.7
	s-0.4,0.2-0.6,0.2c-0.2,0-0.5-0.1-0.6-0.2S135.6,313.1,135.6,312.8z M148.2,315.4v0.9l-1.8,0.2c0.2,0.2,0.3,0.5,0.4,0.8
	s0.2,0.7,0.2,1.1c0,0.9-0.3,1.7-1,2.3s-1.5,0.8-2.7,0.8c-0.3,0-0.6,0-0.8-0.1c-0.6,0.3-0.9,0.7-0.9,1.2c0,0.3,0.1,0.5,0.3,0.6
	s0.6,0.2,1.1,0.2h1.7c1,0,1.8,0.2,2.4,0.7s0.8,1.1,0.8,1.9c0,1.1-0.4,1.9-1.3,2.4s-2.1,0.8-3.7,0.8c-1.3,0-2.2-0.2-2.9-0.7
	s-1-1.1-1-2c0-0.6,0.2-1.1,0.6-1.5s0.9-0.7,1.6-0.9c-0.2-0.1-0.5-0.3-0.6-0.5s-0.3-0.5-0.3-0.8c0-0.4,0.1-0.7,0.3-0.9
	s0.5-0.5,0.9-0.8c-0.5-0.2-0.9-0.6-1.2-1s-0.5-1.1-0.5-1.7c0-1.1,0.3-1.9,0.9-2.4s1.5-0.9,2.7-0.9c0.5,0,1,0.1,1.4,0.2H148.2z
	 M140.5,326.6c0,0.5,0.2,0.9,0.7,1.2s1.1,0.4,1.9,0.4c1.2,0,2.1-0.2,2.7-0.5s0.9-0.9,0.9-1.5c0-0.5-0.2-0.9-0.5-1.1
	s-0.9-0.3-1.8-0.3h-1.7c-0.7,0-1.2,0.2-1.5,0.5S140.5,326,140.5,326.6z M141.3,318.5c0,0.7,0.2,1.2,0.6,1.5s0.9,0.5,1.6,0.5
	c1.4,0,2.1-0.7,2.1-2.1c0-1.4-0.7-2.2-2.2-2.2c-0.7,0-1.2,0.2-1.6,0.6S141.3,317.7,141.3,318.5z M156.7,325v-6.2
	c0-0.8-0.2-1.4-0.5-1.8s-0.9-0.6-1.7-0.6c-1,0-1.8,0.3-2.2,0.8s-0.7,1.5-0.7,2.7v5h-1.5v-13.7h1.5v4.1c0,0.5,0,0.9-0.1,1.2h0.1
	c0.3-0.5,0.7-0.8,1.2-1.1s1.1-0.4,1.8-0.4c1.2,0,2.1,0.3,2.6,0.8s0.9,1.4,0.9,2.7v6.3H156.7z M164.3,324c0.3,0,0.5,0,0.7-0.1
	s0.4-0.1,0.6-0.1v1.1c-0.2,0.1-0.4,0.1-0.7,0.2s-0.6,0.1-0.8,0.1c-1.9,0-2.8-1-2.8-2.9v-5.7h-1.4v-0.7l1.4-0.6l0.6-2.1h0.8v2.2h2.8
	v1.1h-2.8v5.7c0,0.6,0.1,1,0.4,1.3S163.8,324,164.3,324z M182.7,318.5c0,2.1-0.6,3.7-1.7,4.9s-2.8,1.7-5,1.7h-3.6v-12.8h3.9
	c2,0,3.6,0.6,4.7,1.7S182.7,316.5,182.7,318.5z M181.1,318.5c0-1.7-0.4-2.9-1.3-3.8s-2.1-1.3-3.7-1.3h-2.2v10.3h1.8
	c1.8,0,3.1-0.4,4-1.3S181.1,320.2,181.1,318.5z M191.3,325l-0.3-1.4h-0.1c-0.5,0.6-1,1-1.4,1.2s-1.1,0.3-1.8,0.3
	c-1,0-1.7-0.2-2.2-0.7s-0.8-1.2-0.8-2.1c0-1.9,1.6-3,4.7-3.1l1.6-0.1v-0.6c0-0.8-0.2-1.3-0.5-1.7s-0.8-0.5-1.6-0.5
	c-0.8,0-1.7,0.2-2.7,0.7l-0.4-1.1c0.5-0.3,1-0.5,1.6-0.6s1.1-0.2,1.7-0.2c1.1,0,2,0.3,2.6,0.8s0.8,1.3,0.8,2.5v6.6H191.3z M188,324
	c0.9,0,1.6-0.2,2.1-0.7s0.8-1.2,0.8-2.1v-0.9l-1.5,0.1c-1.2,0-2,0.2-2.5,0.5s-0.8,0.8-0.8,1.5c0,0.5,0.2,0.9,0.5,1.2
	S187.4,324,188,324z M198.5,324c0.3,0,0.5,0,0.7-0.1s0.4-0.1,0.6-0.1v1.1c-0.2,0.1-0.4,0.1-0.7,0.2s-0.6,0.1-0.8,0.1
	c-1.9,0-2.8-1-2.8-2.9v-5.7h-1.4v-0.7l1.4-0.6l0.6-2.1h0.8v2.2h2.8v1.1h-2.8v5.7c0,0.6,0.1,1,0.4,1.3S198,324,198.5,324z M207.6,325
	l-0.3-1.4h-0.1c-0.5,0.6-1,1-1.4,1.2s-1.1,0.3-1.8,0.3c-1,0-1.7-0.2-2.2-0.7s-0.8-1.2-0.8-2.1c0-1.9,1.6-3,4.7-3.1l1.6-0.1v-0.6
	c0-0.8-0.2-1.3-0.5-1.7s-0.8-0.5-1.6-0.5c-0.8,0-1.7,0.2-2.7,0.7l-0.4-1.1c0.5-0.3,1-0.5,1.6-0.6s1.1-0.2,1.7-0.2
	c1.1,0,2,0.3,2.6,0.8s0.8,1.3,0.8,2.5v6.6H207.6z M204.3,324c0.9,0,1.6-0.2,2.1-0.7s0.8-1.2,0.8-2.1v-0.9l-1.5,0.1
	c-1.2,0-2,0.2-2.5,0.5s-0.8,0.8-0.8,1.5c0,0.5,0.2,0.9,0.5,1.2S203.8,324,204.3,324z M224.8,315.9c0,1.3-0.4,2.3-1.3,3
	s-2.2,1.1-3.8,1.1h-1.5v5.1h-1.5v-12.8h3.3C223.1,312.2,224.8,313.4,224.8,315.9z M218.1,318.7h1.3c1.3,0,2.3-0.2,2.9-0.6
	s0.9-1.1,0.9-2.1c0-0.8-0.3-1.5-0.8-1.9s-1.4-0.6-2.6-0.6h-1.7V318.7z M228.7,325h-1.5v-13.7h1.5V325z M237.7,325l-0.3-1.4h-0.1
	c-0.5,0.6-1,1-1.4,1.2s-1.1,0.3-1.8,0.3c-1,0-1.7-0.2-2.2-0.7s-0.8-1.2-0.8-2.1c0-1.9,1.6-3,4.7-3.1l1.6-0.1v-0.6
	c0-0.8-0.2-1.3-0.5-1.7s-0.8-0.5-1.6-0.5c-0.8,0-1.7,0.2-2.7,0.7l-0.4-1.1c0.5-0.3,1-0.5,1.6-0.6s1.1-0.2,1.7-0.2
	c1.1,0,2,0.3,2.6,0.8s0.8,1.3,0.8,2.5v6.6H237.7z M234.4,324c0.9,0,1.6-0.2,2.1-0.7s0.8-1.2,0.8-2.1v-0.9l-1.5,0.1
	c-1.2,0-2,0.2-2.5,0.5s-0.8,0.8-0.8,1.5c0,0.5,0.2,0.9,0.5,1.2S233.8,324,234.4,324z M244.9,324c0.3,0,0.5,0,0.7-0.1
	s0.4-0.1,0.6-0.1v1.1c-0.2,0.1-0.4,0.1-0.7,0.2s-0.6,0.1-0.8,0.1c-1.9,0-2.8-1-2.8-2.9v-5.7h-1.4v-0.7l1.4-0.6l0.6-2.1h0.8v2.2h2.8
	v1.1h-2.8v5.7c0,0.6,0.1,1,0.4,1.3S244.4,324,244.9,324z M252.5,316.5H250v8.5h-1.5v-8.5h-1.7v-0.7l1.7-0.5v-0.5
	c0-2.4,1-3.6,3.1-3.6c0.5,0,1.1,0.1,1.8,0.3l-0.4,1.2c-0.6-0.2-1-0.3-1.4-0.3c-0.6,0-1,0.2-1.2,0.5s-0.4,1-0.4,1.8v0.6h2.5V316.5z
	 M262.6,320.2c0,1.6-0.4,2.8-1.2,3.7s-1.9,1.3-3.3,1.3c-0.9,0-1.6-0.2-2.3-0.6s-1.2-1-1.5-1.7s-0.5-1.6-0.5-2.7
	c0-1.6,0.4-2.8,1.2-3.7s1.9-1.3,3.3-1.3c1.3,0,2.4,0.4,3.2,1.3S262.6,318.6,262.6,320.2z M255.2,320.2c0,1.2,0.2,2.2,0.7,2.8
	s1.2,1,2.2,1s1.7-0.3,2.2-1s0.7-1.6,0.7-2.8c0-1.2-0.2-2.2-0.7-2.8s-1.2-1-2.2-1c-1,0-1.7,0.3-2.2,0.9S255.2,318.9,255.2,320.2z
	 M269.5,315.2c0.4,0,0.8,0,1.2,0.1l-0.2,1.4c-0.4-0.1-0.8-0.1-1.1-0.1c-0.8,0-1.4,0.3-2,0.9s-0.8,1.4-0.8,2.4v5.2h-1.5v-9.6h1.2
	l0.2,1.8h0.1c0.4-0.6,0.8-1.1,1.3-1.5S268.9,315.2,269.5,315.2z M284.7,325v-6.3c0-0.8-0.2-1.3-0.5-1.7s-0.8-0.6-1.5-0.6
	c-0.9,0-1.6,0.3-2,0.8s-0.7,1.3-0.7,2.4v5.4h-1.5v-6.3c0-0.8-0.2-1.3-0.5-1.7s-0.8-0.6-1.5-0.6c-0.9,0-1.6,0.3-2,0.8
	s-0.6,1.4-0.6,2.7v5.1h-1.5v-9.6h1.2l0.2,1.3h0.1c0.3-0.5,0.7-0.8,1.2-1.1s1.1-0.4,1.7-0.4c1.5,0,2.5,0.5,3,1.6h0.1
	c0.3-0.5,0.7-0.9,1.2-1.2s1.2-0.4,1.9-0.4c1.1,0,1.9,0.3,2.4,0.8s0.8,1.5,0.8,2.7v6.3H284.7z"/>
<g>
	<path class="st2" d="M374,340H10c-5.5,0-10-4.5-10-10V10C0,4.5,4.5,0,10,0h364c5.5,0,10,4.5,10,10v266h27v-8l20,18l-20,18v-8h-27
		v34C384,335.5,379.5,340,374,340z M10,2c-4.4,0-8,3.6-8,8v320c0,4.4,3.6,8,8,8h364c4.4,0,8-3.6,8-8v-36h31v5.5l15-13.5l-15-13.5
		v5.5h-31V10c0-4.4-3.6-8-8-8H10z"/>
</g>
<path class="st1" d="M103.7,203.4c0,1.5-0.5,2.7-1.6,3.5s-2.6,1.3-4.5,1.3c-2,0-3.6-0.3-4.7-0.8v-1.9c0.7,0.3,1.5,0.5,2.3,0.7
	s1.6,0.3,2.5,0.3c1.3,0,2.3-0.3,3-0.8s1-1.2,1-2.1c0-0.6-0.1-1.1-0.4-1.5s-0.6-0.7-1.2-1s-1.4-0.7-2.5-1.1c-1.6-0.6-2.7-1.2-3.4-2
	s-1-1.8-1-3.1c0-1.3,0.5-2.4,1.5-3.2s2.3-1.2,3.9-1.2c1.7,0,3.3,0.3,4.7,0.9l-0.6,1.7c-1.4-0.6-2.8-0.9-4.1-0.9
	c-1.1,0-1.9,0.2-2.5,0.7s-0.9,1.1-0.9,1.9c0,0.6,0.1,1.1,0.3,1.5s0.6,0.7,1.1,1s1.3,0.7,2.4,1c1.8,0.6,3,1.3,3.7,2.1
	S103.7,202.3,103.7,203.4z M123.3,208v-8.4c0-1-0.2-1.8-0.7-2.3s-1.1-0.8-2-0.8c-1.2,0-2.1,0.3-2.7,1s-0.9,1.8-0.9,3.2v7.2h-1.9
	v-8.4c0-1-0.2-1.8-0.7-2.3s-1.1-0.8-2.1-0.8c-1.2,0-2.1,0.4-2.7,1.1s-0.8,1.9-0.8,3.6v6.7H107v-12.8h1.6l0.3,1.8h0.1
	c0.4-0.6,0.9-1.1,1.6-1.5s1.4-0.5,2.2-0.5c2,0,3.3,0.7,3.9,2.2h0.1c0.4-0.7,0.9-1.2,1.7-1.6s1.6-0.6,2.5-0.6c1.5,0,2.5,0.4,3.3,1.1
	s1.1,1.9,1.1,3.6v8.4H123.3z M137.2,208l-0.4-1.8h-0.1c-0.6,0.8-1.3,1.3-1.9,1.6s-1.4,0.4-2.4,0.4c-1.3,0-2.3-0.3-3-1
	s-1.1-1.6-1.1-2.8c0-2.6,2.1-4,6.2-4.1l2.2-0.1v-0.8c0-1-0.2-1.8-0.7-2.2s-1.1-0.7-2.1-0.7c-1.1,0-2.3,0.3-3.6,1l-0.6-1.5
	c0.6-0.3,1.3-0.6,2.1-0.8s1.5-0.3,2.3-0.3c1.5,0,2.7,0.3,3.4,1s1.1,1.8,1.1,3.3v8.8H137.2z M132.8,206.6c1.2,0,2.2-0.3,2.9-1
	s1-1.6,1-2.8v-1.2l-1.9,0.1c-1.5,0.1-2.7,0.3-3.3,0.7s-1,1.1-1,2c0,0.7,0.2,1.2,0.6,1.6S132,206.6,132.8,206.6z M148.5,194.9
	c0.6,0,1.1,0,1.5,0.1l-0.3,1.8c-0.5-0.1-1-0.2-1.4-0.2c-1,0-1.9,0.4-2.7,1.3s-1.1,1.9-1.1,3.2v6.9h-1.9v-12.8h1.6l0.2,2.4h0.1
	c0.5-0.8,1.1-1.5,1.7-1.9S147.7,194.9,148.5,194.9z M156.6,206.6c0.3,0,0.7,0,1-0.1s0.6-0.1,0.8-0.2v1.5c-0.2,0.1-0.5,0.2-0.9,0.3
	s-0.8,0.1-1.1,0.1c-2.5,0-3.7-1.3-3.7-3.9v-7.6h-1.8v-0.9l1.8-0.8l0.8-2.7h1.1v3h3.7v1.5h-3.7v7.6c0,0.8,0.2,1.4,0.6,1.8
	S155.9,206.6,156.6,206.6z M174.8,192.4c-1.9,0-3.4,0.6-4.5,1.9s-1.6,3-1.6,5.2c0,2.2,0.5,4,1.6,5.2s2.5,1.8,4.5,1.8
	c1.2,0,2.6-0.2,4.1-0.6v1.7c-1.2,0.4-2.7,0.7-4.4,0.7c-2.5,0-4.5-0.8-5.8-2.3s-2.1-3.7-2.1-6.5c0-1.8,0.3-3.3,1-4.6s1.6-2.4,2.9-3.1
	s2.7-1.1,4.4-1.1c1.8,0,3.4,0.3,4.7,1l-0.8,1.7C177.4,192.7,176.1,192.4,174.8,192.4z M193.4,201.6c0,2.1-0.5,3.7-1.6,4.9
	s-2.5,1.8-4.4,1.8c-1.1,0-2.2-0.3-3.1-0.8s-1.6-1.3-2.1-2.3s-0.7-2.2-0.7-3.5c0-2.1,0.5-3.7,1.6-4.9s2.5-1.8,4.4-1.8
	c1.8,0,3.2,0.6,4.3,1.8S193.4,199.5,193.4,201.6z M183.6,201.6c0,1.6,0.3,2.9,1,3.8s1.6,1.3,2.9,1.3s2.2-0.4,2.9-1.3s1-2.1,1-3.8
	c0-1.6-0.3-2.9-1-3.7s-1.6-1.3-2.9-1.3c-1.3,0-2.2,0.4-2.9,1.3S183.6,199.9,183.6,201.6z M205.6,208v-8.3c0-1-0.2-1.8-0.7-2.3
	s-1.2-0.8-2.2-0.8c-1.3,0-2.3,0.4-3,1.1s-0.9,1.9-0.9,3.6v6.7h-1.9v-12.8h1.6l0.3,1.8h0.1c0.4-0.6,1-1.1,1.7-1.5s1.5-0.5,2.4-0.5
	c1.5,0,2.7,0.4,3.5,1.1s1.2,1.9,1.2,3.6v8.4H205.6z M220.3,208v-8.3c0-1-0.2-1.8-0.7-2.3s-1.2-0.8-2.2-0.8c-1.3,0-2.3,0.4-3,1.1
	s-0.9,1.9-0.9,3.6v6.7h-1.9v-12.8h1.6l0.3,1.8h0.1c0.4-0.6,1-1.1,1.7-1.5s1.5-0.5,2.4-0.5c1.5,0,2.7,0.4,3.5,1.1s1.2,1.9,1.2,3.6
	v8.4H220.3z M231.7,208.2c-1.9,0-3.4-0.6-4.5-1.7s-1.6-2.8-1.6-4.8c0-2.1,0.5-3.7,1.5-4.9s2.4-1.8,4.1-1.8c1.6,0,2.9,0.5,3.8,1.6
	s1.4,2.5,1.4,4.2v1.2h-8.8c0,1.5,0.4,2.7,1.1,3.4s1.7,1.2,3.1,1.2c1.4,0,2.8-0.3,4.1-0.9v1.7c-0.7,0.3-1.3,0.5-2,0.6
	S232.5,208.2,231.7,208.2z M231.1,196.6c-1,0-1.9,0.3-2.5,1s-1,1.6-1.1,2.8h6.7c0-1.2-0.3-2.2-0.8-2.8S232.1,196.6,231.1,196.6z
	 M244.8,208.2c-1.9,0-3.3-0.6-4.3-1.7s-1.5-2.8-1.5-4.9c0-2.1,0.5-3.8,1.6-5s2.5-1.8,4.4-1.8c0.6,0,1.2,0.1,1.9,0.2s1.1,0.3,1.5,0.5
	l-0.6,1.7c-0.4-0.2-0.9-0.3-1.4-0.4s-1-0.2-1.3-0.2c-2.6,0-3.9,1.7-3.9,5c0,1.6,0.3,2.8,1,3.6s1.6,1.3,2.8,1.3
	c1.1,0,2.2-0.2,3.3-0.7v1.7C247.2,208,246.1,208.2,244.8,208.2z M255.3,206.6c0.3,0,0.7,0,1-0.1s0.6-0.1,0.8-0.2v1.5
	c-0.2,0.1-0.5,0.2-0.9,0.3s-0.8,0.1-1.1,0.1c-2.5,0-3.7-1.3-3.7-3.9v-7.6h-1.8v-0.9l1.8-0.8l0.8-2.7h1.1v3h3.7v1.5h-3.7v7.6
	c0,0.8,0.2,1.4,0.6,1.8S254.6,206.6,255.3,206.6z M270.7,201.6c0,2.1-0.5,3.7-1.6,4.9s-2.5,1.8-4.4,1.8c-1.1,0-2.2-0.3-3.1-0.8
	s-1.6-1.3-2.1-2.3s-0.7-2.2-0.7-3.5c0-2.1,0.5-3.7,1.6-4.9s2.5-1.8,4.4-1.8c1.8,0,3.2,0.6,4.3,1.8S270.7,199.5,270.7,201.6z
	 M260.9,201.6c0,1.6,0.3,2.9,1,3.8s1.6,1.3,2.9,1.3s2.2-0.4,2.9-1.3s1-2.1,1-3.8c0-1.6-0.3-2.9-1-3.7s-1.6-1.3-2.9-1.3
	c-1.3,0-2.2,0.4-2.9,1.3S260.9,199.9,260.9,201.6z M280,194.9c0.6,0,1.1,0,1.5,0.1l-0.3,1.8c-0.5-0.1-1-0.2-1.4-0.2
	c-1,0-1.9,0.4-2.7,1.3s-1.1,1.9-1.1,3.2v6.9h-1.9v-12.8h1.6l0.2,2.4h0.1c0.5-0.8,1.1-1.5,1.7-1.9S279.1,194.9,280,194.9z
	 M292.2,204.5c0,1.2-0.4,2.1-1.3,2.8s-2.1,1-3.8,1c-1.7,0-3-0.3-4-0.8v-1.8c0.6,0.3,1.3,0.6,2,0.7s1.4,0.3,2,0.3
	c1,0,1.8-0.2,2.3-0.5s0.8-0.8,0.8-1.5c0-0.5-0.2-0.9-0.7-1.3s-1.3-0.8-2.5-1.3c-1.2-0.4-2-0.8-2.5-1.2s-0.9-0.7-1.1-1.1
	s-0.4-0.9-0.4-1.5c0-1,0.4-1.9,1.3-2.5s2-0.9,3.5-0.9c1.4,0,2.7,0.3,4.1,0.8l-0.7,1.6c-1.3-0.5-2.5-0.8-3.5-0.8
	c-0.9,0-1.6,0.1-2.1,0.4s-0.7,0.7-0.7,1.2c0,0.3,0.1,0.6,0.3,0.9s0.5,0.5,0.8,0.7s1.1,0.5,2.2,0.9c1.5,0.6,2.6,1.1,3.1,1.7
	S292.2,203.6,292.2,204.5z"/>
<g>
	
		<linearGradient id="SVGID_1_" gradientUnits="userSpaceOnUse" x1="182.3609" y1="364.2212" x2="182.3609" y2="364.5577" gradientTransform="matrix(338 0 0 -208 -61446 75918)">
		<stop  offset="0" style="stop-color:#00BFB3"/>
		<stop  offset="1" style="stop-color:#31C8FA"/>
	</linearGradient>
	<path class="st3" d="M351,230H33c-6.1,0-11-4.9-11-11V31c0-6.1,4.9-11,11-11h318c6.1,0,11,4.9,11,11v188
		C362,225.1,357.1,230,351,230z M33,22c-5,0-9,4-9,9v188c0,5,4,9,9,9h318c5,0,9-4,9-9V31c0-5-4-9-9-9H33z"/>
</g>
<g>
	
		<linearGradient id="SVGID_2_" gradientUnits="userSpaceOnUse" x1="182.3609" y1="363.8472" x2="182.3609" y2="364.1945" gradientTransform="matrix(338 0 0 -48 -61446 17748)">
		<stop  offset="0" style="stop-color:#00BFB3"/>
		<stop  offset="1" style="stop-color:#31C8FA"/>
	</linearGradient>
	<path class="st4" d="M351,300H33c-6.1,0-11-4.9-11-11v-28c0-6.1,4.9-11,11-11h318c6.1,0,11,4.9,11,11v28
		C362,295.1,357.1,300,351,300z M33,252c-5,0-9,4-9,9v28c0,5,4,9,9,9h318c5,0,9-4,9-9v-28c0-5-4-9-9-9H33z"/>
</g>
<path class="st1" d="M131.6,284.3H122v-17.2h9.6v1.8H124v5.5h7.1v1.8H124v6.3h7.6V284.3z M137.9,284.3l-4.9-12.9h2.1l2.8,7.7
	c0.6,1.8,1,3,1.1,3.5h0.1c0.1-0.4,0.4-1.3,0.8-2.6c0.5-1.3,1.5-4.2,3.1-8.6h2.1l-4.9,12.9H137.9z M152.6,284.5
	c-1.9,0-3.4-0.6-4.5-1.7s-1.7-2.8-1.7-4.8c0-2.1,0.5-3.7,1.5-5c1-1.2,2.4-1.8,4.1-1.8c1.6,0,2.9,0.5,3.8,1.6
	c0.9,1.1,1.4,2.5,1.4,4.2v1.2h-8.9c0,1.5,0.4,2.7,1.1,3.4c0.7,0.8,1.7,1.2,3.1,1.2c1.4,0,2.8-0.3,4.1-0.9v1.7
	c-0.7,0.3-1.3,0.5-2,0.6C154.3,284.5,153.5,284.5,152.6,284.5z M152.1,272.8c-1,0-1.9,0.3-2.5,1s-1,1.6-1.1,2.8h6.7
	c0-1.2-0.3-2.2-0.8-2.8C153.9,273.1,153.1,272.8,152.1,272.8z M169.5,284.3V276c0-1.1-0.2-1.8-0.7-2.4s-1.2-0.8-2.2-0.8
	c-1.3,0-2.3,0.4-3,1.1c-0.6,0.7-0.9,1.9-0.9,3.6v6.8h-2v-12.9h1.6l0.3,1.8h0.1c0.4-0.6,1-1.1,1.7-1.5c0.7-0.3,1.5-0.5,2.4-0.5
	c1.6,0,2.7,0.4,3.5,1.1c0.8,0.7,1.2,1.9,1.2,3.6v8.4H169.5z M179.7,282.9c0.3,0,0.7,0,1-0.1s0.6-0.1,0.8-0.2v1.5
	c-0.2,0.1-0.5,0.2-0.9,0.3c-0.4,0.1-0.8,0.1-1.1,0.1c-2.5,0-3.7-1.3-3.7-3.9v-7.7h-1.8V272l1.8-0.8l0.8-2.8h1.1v3h3.7v1.5h-3.7v7.6
	c0,0.8,0.2,1.4,0.6,1.8C178.5,282.7,179,282.9,179.7,282.9z M190.6,267.1h4.9c2.3,0,3.9,0.3,5,1c1,0.7,1.5,1.8,1.5,3.2
	c0,1-0.3,1.9-0.9,2.5c-0.6,0.7-1.4,1.1-2.5,1.3v0.1c2.6,0.4,3.9,1.8,3.9,4.1c0,1.5-0.5,2.7-1.6,3.6c-1,0.9-2.5,1.3-4.4,1.3h-6V267.1
	z M192.6,274.5h3.3c1.4,0,2.4-0.2,3-0.7c0.6-0.4,0.9-1.2,0.9-2.2c0-1-0.3-1.7-1-2.1c-0.7-0.4-1.8-0.6-3.3-0.6h-2.9V274.5z
	 M192.6,276.2v6.4h3.6c1.4,0,2.4-0.3,3.1-0.8c0.7-0.5,1.1-1.4,1.1-2.5c0-1.1-0.4-1.9-1.1-2.4c-0.7-0.5-1.8-0.8-3.3-0.8H192.6z
	 M211.8,271.2c0.6,0,1.1,0,1.5,0.1l-0.3,1.8c-0.5-0.1-1-0.2-1.4-0.2c-1,0-1.9,0.4-2.7,1.3s-1.1,1.9-1.1,3.2v6.9h-2v-12.9h1.6
	l0.2,2.4h0.1c0.5-0.8,1.1-1.5,1.7-1.9C210.2,271.4,211,271.2,211.8,271.2z M226.4,277.9c0,2.1-0.5,3.7-1.6,4.9s-2.5,1.8-4.4,1.8
	c-1.2,0-2.2-0.3-3.1-0.8s-1.6-1.3-2.1-2.3c-0.5-1-0.7-2.2-0.7-3.6c0-2.1,0.5-3.7,1.6-4.9c1.1-1.2,2.5-1.8,4.4-1.8
	c1.8,0,3.2,0.6,4.3,1.8C225.9,274.2,226.4,275.8,226.4,277.9z M216.6,277.9c0,1.6,0.3,2.9,1,3.8s1.6,1.3,2.9,1.3
	c1.3,0,2.3-0.4,2.9-1.3c0.7-0.9,1-2.1,1-3.8c0-1.6-0.3-2.9-1-3.7c-0.7-0.9-1.6-1.3-2.9-1.3c-1.3,0-2.2,0.4-2.9,1.3
	C216.9,274.9,216.6,276.2,216.6,277.9z M231.7,277.7c0.3-0.5,0.9-1.1,1.5-1.9l4.2-4.4h2.3l-5.2,5.5l5.6,7.4h-2.4l-4.6-6.1l-1.5,1.3
	v4.8h-1.9V266h1.9v9.7C231.7,276.1,231.7,276.8,231.7,277.7L231.7,277.7z M247.4,284.5c-1.9,0-3.4-0.6-4.5-1.7
	c-1.1-1.2-1.7-2.8-1.7-4.8c0-2.1,0.5-3.7,1.5-5c1-1.2,2.4-1.8,4.1-1.8c1.6,0,2.9,0.5,3.8,1.6c0.9,1.1,1.4,2.5,1.4,4.2v1.2h-8.9
	c0,1.5,0.4,2.7,1.1,3.4c0.7,0.8,1.7,1.2,3.1,1.2c1.4,0,2.8-0.3,4.1-0.9v1.7c-0.7,0.3-1.3,0.5-2,0.6
	C249.1,284.5,248.3,284.5,247.4,284.5z M246.9,272.8c-1,0-1.9,0.3-2.5,1s-1,1.6-1.1,2.8h6.7c0-1.2-0.3-2.2-0.8-2.8
	C248.7,273.1,247.9,272.8,246.9,272.8z M261.4,271.2c0.6,0,1.1,0,1.5,0.1l-0.3,1.8c-0.5-0.1-1-0.2-1.4-0.2c-1,0-1.9,0.4-2.7,1.3
	s-1.1,1.9-1.1,3.2v6.9h-2v-12.9h1.6l0.2,2.4h0.1c0.5-0.8,1.1-1.5,1.7-1.9C259.8,271.4,260.6,271.2,261.4,271.2z"/>
<path d="M411.6,318.9c-1.1,0-2,0.4-2.6,1.1s-1,1.7-1,3c0,1.3,0.3,2.3,0.9,3s1.5,1.1,2.6,1.1c0.7,0,1.5-0.1,2.4-0.4v1
	c-0.7,0.3-1.5,0.4-2.6,0.4c-1.5,0-2.6-0.4-3.4-1.3s-1.2-2.2-1.2-3.8c0-1,0.2-1.9,0.6-2.7s0.9-1.4,1.7-1.8s1.6-0.6,2.6-0.6
	c1,0,2,0.2,2.7,0.6l-0.5,1C413.1,319.1,412.4,318.9,411.6,318.9z M421.7,328h-5.6v-10h5.6v1h-4.4v3.2h4.1v1h-4.1v3.7h4.4V328z
	 M425.1,328h-1.2v-10h5.6v1h-4.4v3.7h4.1v1h-4.1V328z"/>
<g>
	
		<linearGradient id="SVGID_3_" gradientUnits="userSpaceOnUse" x1="184.8176" y1="364.0952" x2="184.8176" y2="364.4354" gradientTransform="matrix(318 0 0 -98 -58167 35868)">
		<stop  offset="0" style="stop-color:#00BFB3"/>
		<stop  offset="1" style="stop-color:#31C8FA"/>
	</linearGradient>
	<path class="st5" d="M754,220H456c-6.1,0-11-4.9-11-11v-78c0-6.1,4.9-11,11-11h298c6.1,0,11,4.9,11,11v78
		C765,215.1,760.1,220,754,220z M456,122c-5,0-9,4-9,9v78c0,5,4,9,9,9h298c5,0,9-4,9-9v-78c0-5-4-9-9-9H456z"/>
</g>
<g transform="translate(181 143)">
	<path class="st0" d="M322.4,18.9h-14.2c0.1,0.3,0.2,0.6,0.3,1c0.4,1.6,0.7,3.3,0.9,5c0.1,0.7,0.1,1.4,0.1,2.1s0,1.4-0.1,2.1
		c-0.1,1.7-0.4,3.4-0.9,5c-0.1,0.3-0.2,0.6-0.3,1h14.2c4.5,0,8.1-3.6,8.1-8.1C330.5,22.5,326.9,18.9,322.4,18.9"/>
	<path class="st6" d="M309.4,29.1c0.1-0.7,0.1-1.4,0.1-2.1c0-0.7,0-1.4-0.1-2.1c-0.1-1.7-0.4-3.4-0.9-5c-0.1-0.3-0.2-0.6-0.3-1h-22
		c-0.8,2.6-1.2,5.3-1.2,8.1c0,2.8,0.4,5.5,1.2,8.1h22c0.1-0.3,0.2-0.6,0.3-1C308.9,32.5,309.2,30.8,309.4,29.1"/>
	<path class="st7" d="M324.9,37.8h-17.7c-0.5,1.2-1.1,2.4-1.8,3.5c-1,1.7-2.3,3.2-3.6,4.6c-0.5,0.5-0.9,0.9-1.4,1.3
		c-1,0.9-2,1.7-3.1,2.4c4.3,2.8,9.4,4.5,14.9,4.5c9.4,0,17.7-4.8,22.6-12C332.3,39.4,328.8,37.8,324.9,37.8"/>
	<path class="st8" d="M305.4,41.3c0.7-1.1,1.3-2.3,1.8-3.5h-19.9c2.1,4.8,5.6,8.9,10,11.7c1.1-0.7,2.1-1.5,3.1-2.4
		c0.5-0.4,1-0.9,1.4-1.3C303.1,44.5,304.3,42.9,305.4,41.3"/>
	<path class="st9" d="M301.7,8.2c-0.5-0.5-0.9-0.9-1.4-1.3c-1-0.9-2-1.7-3.1-2.4c-4.4,2.9-7.8,6.9-10,11.7h19.9
		c-0.5-1.2-1.1-2.4-1.8-3.5C304.3,11.1,303.1,9.5,301.7,8.2"/>
	<path class="st10" d="M312.2,0c-5.5,0-10.7,1.6-14.9,4.5c1.1,0.7,2.1,1.5,3.1,2.4c0.5,0.4,1,0.9,1.4,1.3c1.4,1.4,2.6,2.9,3.6,4.6
		c0.7,1.1,1.3,2.3,1.8,3.5h17.7c3.9,0,7.4-1.6,9.9-4.2C329.9,4.8,321.6,0,312.2,0"/>
</g>
<g>
	
		<linearGradient id="SVGID_4_" gradientUnits="userSpaceOnUse" x1="184.8176" y1="364.0952" x2="184.8176" y2="364.4354" gradientTransform="matrix(318 0 0 -98 -58167 35988)">
		<stop  offset="0" style="stop-color:#00BFB3"/>
		<stop  offset="1" style="stop-color:#31C8FA"/>
	</linearGradient>
	<path class="st11" d="M754,340H456c-6.1,0-11-4.9-11-11v-78c0-6.1,4.9-11,11-11h298c6.1,0,11,4.9,11,11v78
		C765,335.1,760.1,340,754,340z M456,242c-5,0-9,4-9,9v78c0,5,4,9,9,9h298c5,0,9-4,9-9v-78c0-5-4-9-9-9H456z"/>
</g>
<g transform="translate(25 25)">
	<path class="st10" d="M452.8,240h-7.5v27.5h22.5V255C467.8,247,460.8,240,452.8,240"/>
	<path class="st6" d="M445.2,270.6c0,10.9,11.6,19.4,22.5,19.4v-22.5h-22.5V270.6z"/>
	<polygon class="st7" points="472.8,290 487.8,290 487.8,267.5 472.8,267.5 	"/>
	<polygon class="st8" points="467.8,290 472.8,290 472.8,267.5 467.8,267.5 	"/>
</g>
<path class="st1" d="M556.4,298v-17.1h2v15.3h7.6v1.8H556.4z M579.6,291.6c0,2.1-0.5,3.7-1.6,4.9s-2.5,1.8-4.4,1.8
	c-1.1,0-2.2-0.3-3.1-0.8s-1.6-1.3-2.1-2.3s-0.7-2.2-0.7-3.5c0-2.1,0.5-3.7,1.6-4.9s2.5-1.8,4.4-1.8c1.8,0,3.2,0.6,4.3,1.8
	S579.6,289.5,579.6,291.6z M569.8,291.6c0,1.6,0.3,2.9,1,3.8s1.6,1.3,2.9,1.3s2.2-0.4,2.9-1.3s1-2.1,1-3.8c0-1.6-0.3-2.9-1-3.7
	s-1.6-1.3-2.9-1.3c-1.3,0-2.2,0.4-2.9,1.3S569.8,289.9,569.8,291.6z M593.5,285.2v1.2l-2.4,0.3c0.2,0.3,0.4,0.6,0.6,1.1
	s0.3,0.9,0.3,1.5c0,1.3-0.4,2.3-1.3,3s-2,1.1-3.5,1.1c-0.4,0-0.7,0-1.1-0.1c-0.8,0.4-1.2,1-1.2,1.7c0,0.4,0.1,0.6,0.4,0.8
	s0.8,0.3,1.5,0.3h2.3c1.4,0,2.5,0.3,3.2,0.9s1.1,1.4,1.1,2.6c0,1.4-0.6,2.5-1.7,3.3s-2.8,1.1-5,1.1c-1.7,0-3-0.3-3.9-0.9
	s-1.4-1.5-1.4-2.6c0-0.8,0.2-1.5,0.8-2s1.2-1,2.1-1.2c-0.3-0.1-0.6-0.4-0.8-0.7s-0.3-0.7-0.3-1.1c0-0.5,0.1-0.9,0.4-1.2
	s0.6-0.7,1.2-1c-0.7-0.3-1.2-0.7-1.6-1.4s-0.6-1.4-0.6-2.2c0-1.4,0.4-2.5,1.3-3.3s2-1.1,3.6-1.1c0.7,0,1.3,0.1,1.8,0.2H593.5z
	 M583.3,300.2c0,0.7,0.3,1.2,0.9,1.6s1.4,0.5,2.5,0.5c1.6,0,2.8-0.2,3.6-0.7s1.2-1.2,1.2-2c0-0.7-0.2-1.2-0.6-1.4s-1.2-0.4-2.4-0.4
	h-2.3c-0.9,0-1.6,0.2-2.1,0.6S583.3,299.4,583.3,300.2z M584.3,289.3c0,0.9,0.3,1.6,0.8,2s1.2,0.7,2.1,0.7c1.9,0,2.8-0.9,2.8-2.8
	c0-1.9-1-2.9-2.9-2.9c-0.9,0-1.6,0.2-2.1,0.7S584.3,288.3,584.3,289.3z M604.4,294.5c0,1.2-0.4,2.1-1.3,2.8s-2.1,1-3.8,1
	c-1.7,0-3-0.3-4-0.8v-1.8c0.6,0.3,1.3,0.6,2,0.7s1.4,0.3,2,0.3c1,0,1.8-0.2,2.3-0.5s0.8-0.8,0.8-1.5c0-0.5-0.2-0.9-0.7-1.3
	s-1.3-0.8-2.5-1.3c-1.2-0.4-2-0.8-2.5-1.2s-0.9-0.7-1.1-1.1s-0.4-0.9-0.4-1.5c0-1,0.4-1.9,1.3-2.5s2-0.9,3.5-0.9
	c1.4,0,2.7,0.3,4.1,0.8l-0.7,1.6c-1.3-0.5-2.5-0.8-3.5-0.8c-0.9,0-1.6,0.1-2.1,0.4s-0.7,0.7-0.7,1.2c0,0.3,0.1,0.6,0.3,0.9
	s0.5,0.5,0.8,0.7s1.1,0.5,2.2,0.9c1.5,0.6,2.6,1.1,3.1,1.7S604.4,293.6,604.4,294.5z M611.8,296.6c0.3,0,0.7,0,1-0.1
	s0.6-0.1,0.8-0.2v1.5c-0.2,0.1-0.5,0.2-0.9,0.3s-0.8,0.1-1.1,0.1c-2.5,0-3.7-1.3-3.7-3.9v-7.6h-1.8v-0.9l1.8-0.8l0.8-2.7h1.1v3h3.7
	v1.5h-3.7v7.6c0,0.8,0.2,1.4,0.6,1.8S611.1,296.6,611.8,296.6z M624,298l-0.4-1.8h-0.1c-0.6,0.8-1.3,1.3-1.9,1.6s-1.4,0.4-2.4,0.4
	c-1.3,0-2.3-0.3-3-1s-1.1-1.6-1.1-2.8c0-2.6,2.1-4,6.2-4.1l2.2-0.1v-0.8c0-1-0.2-1.8-0.7-2.2s-1.1-0.7-2.1-0.7c-1.1,0-2.3,0.3-3.6,1
	l-0.6-1.5c0.6-0.3,1.3-0.6,2.1-0.8s1.5-0.3,2.3-0.3c1.5,0,2.7,0.3,3.4,1s1.1,1.8,1.1,3.3v8.8H624z M619.6,296.6c1.2,0,2.2-0.3,2.9-1
	s1-1.6,1-2.8v-1.2l-1.9,0.1c-1.5,0.1-2.7,0.3-3.3,0.7s-1,1.1-1,2c0,0.7,0.2,1.2,0.6,1.6S618.8,296.6,619.6,296.6z M637.7,294.5
	c0,1.2-0.4,2.1-1.3,2.8s-2.1,1-3.8,1c-1.7,0-3-0.3-4-0.8v-1.8c0.6,0.3,1.3,0.6,2,0.7s1.4,0.3,2,0.3c1,0,1.8-0.2,2.3-0.5
	s0.8-0.8,0.8-1.5c0-0.5-0.2-0.9-0.7-1.3s-1.3-0.8-2.5-1.3c-1.2-0.4-2-0.8-2.5-1.2s-0.9-0.7-1.1-1.1s-0.4-0.9-0.4-1.5
	c0-1,0.4-1.9,1.3-2.5s2-0.9,3.5-0.9c1.4,0,2.7,0.3,4.1,0.8l-0.7,1.6c-1.3-0.5-2.5-0.8-3.5-0.8c-0.9,0-1.6,0.1-2.1,0.4
	s-0.7,0.7-0.7,1.2c0,0.3,0.1,0.6,0.3,0.9s0.5,0.5,0.8,0.7s1.1,0.5,2.2,0.9c1.5,0.6,2.6,1.1,3.1,1.7S637.7,293.6,637.7,294.5z
	 M649.7,298v-8.3c0-1-0.2-1.8-0.7-2.3s-1.2-0.8-2.2-0.8c-1.4,0-2.3,0.4-3,1.1s-0.9,1.9-0.9,3.6v6.7h-1.9v-18.2h1.9v5.5
	c0,0.7,0,1.2-0.1,1.7h0.1c0.4-0.6,0.9-1.1,1.6-1.5s1.5-0.5,2.4-0.5c1.6,0,2.7,0.4,3.5,1.1s1.2,1.9,1.2,3.6v8.4H649.7z"/>
<g>
	
		<linearGradient id="SVGID_5_" gradientUnits="userSpaceOnUse" x1="184.8176" y1="364.0952" x2="184.8176" y2="364.4354" gradientTransform="matrix(318 0 0 -98 -58167 35748)">
		<stop  offset="0" style="stop-color:#00BFB3"/>
		<stop  offset="1" style="stop-color:#31C8FA"/>
	</linearGradient>
	<path class="st12" d="M754,100H456c-6.1,0-11-4.9-11-11V11c0-6.1,4.9-11,11-11h298c6.1,0,11,4.9,11,11v78
		C765,95.1,760.1,100,754,100z M456,2c-5,0-9,4-9,9v78c0,5,4,9,9,9h298c5,0,9-4,9-9V11c0-5-4-9-9-9H456z"/>
</g>
<g transform="translate(27 25)">
	<path class="st8" d="M464.2,22.8L445.8,45v5h2.3l20.6-24.7C467.3,24.4,465.8,23.6,464.2,22.8"/>
	<path class="st13" d="M468.7,25.3L448.1,50h35.2C483.2,39.9,477.5,31,468.7,25.3"/>
	<path class="st6" d="M445.8,45l18.5-22.2c-5.5-2.6-11.8-14.1-18.5-14.1V45z"/>
	<path class="st14" d="M445.8,0v18.8c6.7,0,13,1.5,18.5,4.1l19-22.8H445.8z"/>
</g>
<path class="st1" d="M568.7,58h-2.3l-6.2-8.3l-1.8,1.6V58h-2V40.9h2v8.5l7.8-8.5h2.4l-6.9,7.4L568.7,58z M572.7,58h-1.9V45.2h1.9V58
	z M570.6,41.7c0-0.4,0.1-0.8,0.3-1s0.5-0.3,0.8-0.3c0.3,0,0.6,0.1,0.8,0.3s0.3,0.5,0.3,1s-0.1,0.8-0.3,1s-0.5,0.3-0.8,0.3
	c-0.3,0-0.6-0.1-0.8-0.3S570.6,42.1,570.6,41.7z M582.8,44.9c1.7,0,3,0.6,3.9,1.7s1.4,2.8,1.4,4.9s-0.5,3.7-1.4,4.9
	s-2.2,1.8-3.9,1.8c-0.8,0-1.6-0.2-2.3-0.5s-1.3-0.8-1.7-1.4h-0.1l-0.4,1.7h-1.4V39.8h1.9v4.4c0,1,0,1.9-0.1,2.7h0.1
	C579.7,45.6,581.1,44.9,582.8,44.9z M582.6,46.6c-1.3,0-2.3,0.4-2.9,1.1s-0.9,2-0.9,3.8s0.3,3.1,0.9,3.9s1.6,1.2,2.9,1.2
	c1.2,0,2.1-0.4,2.7-1.3s0.9-2.1,0.9-3.8c0-1.7-0.3-2.9-0.9-3.7S583.8,46.6,582.6,46.6z M599.5,58l-0.4-1.8H599
	c-0.6,0.8-1.3,1.3-1.9,1.6s-1.4,0.4-2.4,0.4c-1.3,0-2.3-0.3-3-1s-1.1-1.6-1.1-2.8c0-2.6,2.1-4,6.2-4.1l2.2-0.1v-0.8
	c0-1-0.2-1.8-0.7-2.2s-1.1-0.7-2.1-0.7c-1.1,0-2.3,0.3-3.6,1l-0.6-1.5c0.6-0.3,1.3-0.6,2.1-0.8s1.5-0.3,2.3-0.3c1.5,0,2.7,0.3,3.4,1
	s1.1,1.8,1.1,3.3V58H599.5z M595.1,56.6c1.2,0,2.2-0.3,2.9-1s1-1.6,1-2.8v-1.2l-1.9,0.1c-1.5,0.1-2.7,0.3-3.3,0.7s-1,1.1-1,2
	c0,0.7,0.2,1.2,0.6,1.6S594.3,56.6,595.1,56.6z M613.7,58v-8.3c0-1-0.2-1.8-0.7-2.3s-1.2-0.8-2.2-0.8c-1.3,0-2.3,0.4-3,1.1
	s-0.9,1.9-0.9,3.6V58h-1.9V45.2h1.6l0.3,1.8h0.1c0.4-0.6,1-1.1,1.7-1.5s1.5-0.5,2.4-0.5c1.5,0,2.7,0.4,3.5,1.1s1.2,1.9,1.2,3.6V58
	H613.7z M627.5,58l-0.4-1.8h-0.1c-0.6,0.8-1.3,1.3-1.9,1.6s-1.4,0.4-2.4,0.4c-1.3,0-2.3-0.3-3-1s-1.1-1.6-1.1-2.8
	c0-2.6,2.1-4,6.2-4.1l2.2-0.1v-0.8c0-1-0.2-1.8-0.7-2.2s-1.1-0.7-2.1-0.7c-1.1,0-2.3,0.3-3.6,1l-0.6-1.5c0.6-0.3,1.3-0.6,2.1-0.8
	s1.5-0.3,2.3-0.3c1.5,0,2.7,0.3,3.4,1s1.1,1.8,1.1,3.3V58H627.5z M623.2,56.6c1.2,0,2.2-0.3,2.9-1s1-1.6,1-2.8v-1.2l-1.9,0.1
	c-1.5,0.1-2.7,0.3-3.3,0.7s-1,1.1-1,2c0,0.7,0.2,1.2,0.6,1.6S622.4,56.6,623.2,56.6z"/>
<g>
	
		<linearGradient id="SVGID_6_" gradientUnits="userSpaceOnUse" x1="188.8406" y1="364.2643" x2="188.8406" y2="364.5996" gradientTransform="matrix(138 0 0 -338 -25207 123348)">
		<stop  offset="0" style="stop-color:#00BFB3"/>
		<stop  offset="1" style="stop-color:#31C8FA"/>
	</linearGradient>
	<path class="st15" d="M912,340H794c-6.1,0-11-4.9-11-11V11c0-6.1,4.9-11,11-11h118c6.1,0,11,4.9,11,11v318
		C923,335.1,918.1,340,912,340z M794,2c-5,0-9,4-9,9v318c0,5,4,9,9,9h118c5,0,9-4,9-9V11c0-5-4-9-9-9H794z"/>
</g>
<g transform="translate(45 123)">
	<path class="st10" d="M820.3,25L808,12.7l10.5-10.5c2.9-2.9,7.6-2.9,10.5,0l1.8,1.8c2.9,2.9,2.9,7.6,0,10.5L820.3,25z"/>
	<path class="st16" d="M795.7,25l-10.5,10.5c-2.9,2.9-2.9,7.6,0,10.5l1.8,1.8c2.9,2.9,7.6,2.9,10.5,0L808,37.3L795.7,25z"/>
	<path class="st0" d="M818.5,23.2L797.5,2.2c-2.9-2.9-7.6-2.9-10.5,0l-1.8,1.8c-2.9,2.9-2.9,7.6,0,10.5L795.7,25l1.8-1.8
		C803.3,17.4,812.7,17.4,818.5,23.2"/>
	<path class="st17" d="M818.5,23.2c-5.8-5.8-15.2-5.8-21.1,0l-1.8,1.8L808,37.3L820.3,25L818.5,23.2z"/>
	<path class="st7" d="M830.8,35.5l-7-7l-12.3,12.3l7,7c2.9,2.9,7.6,2.9,10.5,0l1.8-1.8C833.7,43.2,833.7,38.4,830.8,35.5"/>
	<polygon class="st8" points="820.3,25 808,37.3 811.5,40.8 823.8,28.5 	"/>
</g>
<path class="st1" d="M829.8,210h-2.3l-4.6-7.5l-4.7,7.5h-2.1l5.7-9l-5.3-8.2h2.2l4.3,6.8l4.3-6.8h2.1L824,201L829.8,210z
	 M830.8,204.5v-1.8h5.8v1.8H830.8z M850.8,197.9c0,1.7-0.6,3.1-1.8,4s-2.9,1.4-5.1,1.4h-2v6.7h-2v-17.1h4.4
	C848.7,192.9,850.8,194.5,850.8,197.9z M841.9,201.6h1.8c1.8,0,3-0.3,3.8-0.9s1.2-1.5,1.2-2.7c0-1.1-0.4-2-1.1-2.5s-1.9-0.8-3.5-0.8
	h-2.2V201.6z M862,210l-0.4-1.8h-0.1c-0.6,0.8-1.3,1.3-1.9,1.6s-1.4,0.4-2.4,0.4c-1.3,0-2.3-0.3-3-1s-1.1-1.6-1.1-2.8
	c0-2.6,2.1-4,6.2-4.1l2.2-0.1v-0.8c0-1-0.2-1.8-0.7-2.2s-1.1-0.7-2.1-0.7c-1.1,0-2.3,0.3-3.6,1l-0.6-1.5c0.6-0.3,1.3-0.6,2.1-0.8
	s1.5-0.3,2.3-0.3c1.5,0,2.7,0.3,3.4,1s1.1,1.8,1.1,3.3v8.8H862z M857.6,208.6c1.2,0,2.2-0.3,2.9-1s1-1.6,1-2.8v-1.2l-1.9,0.1
	c-1.5,0.1-2.7,0.3-3.3,0.7s-1,1.1-1,2c0,0.7,0.2,1.2,0.6,1.6S856.8,208.6,857.6,208.6z M872.6,210.2c-1.9,0-3.3-0.6-4.3-1.7
	s-1.5-2.8-1.5-4.9c0-2.1,0.5-3.8,1.6-5s2.5-1.8,4.4-1.8c0.6,0,1.2,0.1,1.9,0.2s1.1,0.3,1.5,0.5l-0.6,1.7c-0.4-0.2-0.9-0.3-1.4-0.4
	s-1-0.2-1.3-0.2c-2.6,0-3.9,1.7-3.9,5c0,1.6,0.3,2.8,1,3.6s1.6,1.3,2.8,1.3c1.1,0,2.2-0.2,3.3-0.7v1.7
	C875,210,873.9,210.2,872.6,210.2z M880.8,203.4c0.3-0.5,0.8-1.1,1.5-1.9l4.1-4.4h2.3l-5.2,5.5l5.6,7.4h-2.4l-4.5-6.1l-1.5,1.3v4.8
	h-1.9v-18.2h1.9v9.7C880.8,201.9,880.8,202.5,880.8,203.4L880.8,203.4z"/>
<g>
	<polygon class="st1" points="556.4,178 565.9,178 565.9,176.2 558.3,176.2 558.3,169.9 565.4,169.9 565.4,168.2 558.3,168.2 
		558.3,162.6 565.9,162.6 565.9,160.9 556.4,160.9 	"/>
	<rect x="569.4" y="159.8" class="st1" width="1.9" height="18.2"/>
	<path class="st1" d="M580.3,164.9c-0.8,0-1.5,0.1-2.3,0.3s-1.4,0.5-2.1,0.8l0.6,1.5c1.4-0.7,2.6-1,3.6-1c1,0,1.6,0.2,2.1,0.7
		s0.7,1.2,0.7,2.2v0.8l-2.2,0.1c-4.1,0.1-6.2,1.5-6.2,4.1c0,1.2,0.4,2.1,1.1,2.8s1.7,1,3,1c1,0,1.7-0.1,2.4-0.4s1.3-0.8,1.9-1.6h0.1
		l0.4,1.8h1.4v-8.8c0-1.5-0.4-2.6-1.1-3.3S581.8,164.9,580.3,164.9z M582.9,172.8c0,1.2-0.3,2.1-1,2.8s-1.6,1-2.9,1
		c-0.8,0-1.4-0.2-1.8-0.6s-0.6-0.9-0.6-1.6c0-0.9,0.3-1.6,1-2s1.8-0.7,3.3-0.7l1.9-0.1V172.8z"/>
	<path class="st1" d="M593.2,170.7c-1.1-0.4-1.9-0.7-2.2-0.9s-0.7-0.4-0.8-0.7s-0.3-0.5-0.3-0.9c0-0.5,0.2-0.9,0.7-1.2
		s1.2-0.4,2.1-0.4c1,0,2.2,0.3,3.5,0.8l0.7-1.6c-1.3-0.6-2.7-0.8-4.1-0.8c-1.5,0-2.7,0.3-3.5,0.9s-1.3,1.4-1.3,2.5
		c0,0.6,0.1,1.1,0.4,1.5s0.6,0.8,1.1,1.1s1.4,0.7,2.5,1.2c1.3,0.5,2.1,0.9,2.5,1.3s0.7,0.8,0.7,1.3c0,0.7-0.3,1.2-0.8,1.5
		s-1.3,0.5-2.3,0.5c-0.7,0-1.3-0.1-2-0.3s-1.4-0.4-2-0.7v1.8c1,0.5,2.3,0.8,4,0.8c1.6,0,2.9-0.3,3.8-1s1.3-1.6,1.3-2.8
		c0-0.9-0.3-1.6-0.8-2.1S594.7,171.3,593.2,170.7z"/>
	<path class="st1" d="M604.4,176.6c-0.6,0-1.1-0.2-1.5-0.6s-0.6-1-0.6-1.8v-7.6h3.7v-1.5h-3.7v-3h-1.1l-0.8,2.7l-1.8,0.8v0.9h1.8
		v7.6c0,2.6,1.2,3.9,3.7,3.9c0.3,0,0.7,0,1.1-0.1s0.7-0.2,0.9-0.3v-1.5c-0.2,0.1-0.4,0.1-0.8,0.2S604.8,176.6,604.4,176.6z"/>
	<rect x="608.8" y="165.2" class="st1" width="1.9" height="12.8"/>
	<path class="st1" d="M609.7,160.4c-0.3,0-0.6,0.1-0.8,0.3s-0.3,0.5-0.3,1c0,0.4,0.1,0.8,0.3,1s0.5,0.3,0.8,0.3
		c0.3,0,0.6-0.1,0.8-0.3s0.3-0.5,0.3-1s-0.1-0.8-0.3-1S610,160.4,609.7,160.4z"/>
	<path class="st1" d="M620,166.6c0.4,0,0.8,0.1,1.3,0.2s1,0.3,1.4,0.4l0.6-1.7c-0.4-0.2-0.8-0.3-1.5-0.5s-1.2-0.2-1.9-0.2
		c-1.9,0-3.4,0.6-4.4,1.8s-1.6,2.8-1.6,5c0,2.1,0.5,3.7,1.5,4.9s2.5,1.7,4.3,1.7c1.3,0,2.4-0.2,3.2-0.7v-1.7
		c-1.1,0.5-2.2,0.7-3.3,0.7c-1.2,0-2.2-0.4-2.8-1.3s-1-2.1-1-3.6C616.1,168.3,617.4,166.6,620,166.6z"/>
	<path class="st1" d="M630.6,170.7c-1.1-0.4-1.9-0.7-2.2-0.9s-0.7-0.4-0.8-0.7s-0.3-0.5-0.3-0.9c0-0.5,0.2-0.9,0.7-1.2
		s1.2-0.4,2.1-0.4c1,0,2.2,0.3,3.5,0.8l0.7-1.6c-1.3-0.6-2.7-0.8-4.1-0.8c-1.5,0-2.7,0.3-3.5,0.9s-1.3,1.4-1.3,2.5
		c0,0.6,0.1,1.1,0.4,1.5s0.6,0.8,1.1,1.1s1.4,0.7,2.5,1.2c1.3,0.5,2.1,0.9,2.5,1.3s0.7,0.8,0.7,1.3c0,0.7-0.3,1.2-0.8,1.5
		s-1.3,0.5-2.3,0.5c-0.7,0-1.3-0.1-2-0.3s-1.4-0.4-2-0.7v1.8c1,0.5,2.3,0.8,4,0.8c1.6,0,2.9-0.3,3.8-1s1.3-1.6,1.3-2.8
		c0-0.9-0.3-1.6-0.8-2.1S632.2,171.3,630.6,170.7z"/>
	<path class="st1" d="M642.6,164.9c-1.7,0-3.1,0.6-4.1,1.8s-1.5,2.9-1.5,4.9c0,2.1,0.5,3.7,1.6,4.8s2.6,1.7,4.5,1.7
		c0.9,0,1.6-0.1,2.2-0.2s1.3-0.3,2-0.6v-1.7c-1.4,0.6-2.7,0.9-4.1,0.9c-1.3,0-2.3-0.4-3.1-1.2s-1.1-1.9-1.1-3.4h8.8v-1.2
		c0-1.7-0.5-3.1-1.4-4.2S644.2,164.9,642.6,164.9z M639,170.3c0.1-1.2,0.5-2.1,1.1-2.8s1.4-1,2.5-1c1,0,1.8,0.3,2.3,1
		s0.8,1.6,0.8,2.8H639z"/>
	<path class="st1" d="M656,164.9c-0.8,0-1.5,0.1-2.3,0.3s-1.4,0.5-2.1,0.8l0.6,1.5c1.4-0.7,2.6-1,3.6-1c1,0,1.6,0.2,2.1,0.7
		s0.7,1.2,0.7,2.2v0.8l-2.2,0.1c-4.1,0.1-6.2,1.5-6.2,4.1c0,1.2,0.4,2.1,1.1,2.8s1.7,1,3,1c1,0,1.7-0.1,2.4-0.4s1.3-0.8,1.9-1.6h0.1
		l0.4,1.8h1.4v-8.8c0-1.5-0.4-2.6-1.1-3.3S657.5,164.9,656,164.9z M658.6,172.8c0,1.2-0.3,2.1-1,2.8s-1.6,1-2.9,1
		c-0.8,0-1.4-0.2-1.8-0.6s-0.6-0.9-0.6-1.6c0-0.9,0.3-1.6,1-2s1.8-0.7,3.3-0.7l1.9-0.1V172.8z"/>
	<path class="st1" d="M668.2,165.6c-0.7,0.5-1.2,1.1-1.7,1.9h-0.1l-0.2-2.4h-1.6V178h1.9v-6.9c0-1.3,0.4-2.3,1.1-3.2
		s1.6-1.3,2.7-1.3c0.4,0,0.9,0.1,1.4,0.2l0.3-1.8c-0.5-0.1-1-0.1-1.5-0.1C669.6,164.9,668.8,165.1,668.2,165.6z"/>
	<path class="st1" d="M679,166.6c0.4,0,0.8,0.1,1.3,0.2s1,0.3,1.4,0.4l0.6-1.7c-0.4-0.2-0.8-0.3-1.5-0.5s-1.2-0.2-1.9-0.2
		c-1.9,0-3.4,0.6-4.4,1.8s-1.6,2.8-1.6,5c0,2.1,0.5,3.7,1.5,4.9s2.5,1.7,4.3,1.7c1.3,0,2.4-0.2,3.2-0.7v-1.7
		c-1.1,0.5-2.2,0.7-3.3,0.7c-1.2,0-2.2-0.4-2.8-1.3s-1-2.1-1-3.6C675.1,168.3,676.4,166.6,679,166.6z"/>
	<path class="st1" d="M694.8,166.1c-0.8-0.7-2-1.1-3.5-1.1c-0.9,0-1.7,0.2-2.4,0.5s-1.3,0.8-1.6,1.5h-0.1c0.1-0.4,0.1-1,0.1-1.7
		v-5.5h-1.9V178h1.9v-6.7c0-1.7,0.3-2.9,0.9-3.6s1.6-1.1,3-1.1c1,0,1.8,0.3,2.2,0.8s0.7,1.3,0.7,2.3v8.3h1.9v-8.4
		C696,168,695.6,166.8,694.8,166.1z"/>
</g>
</svg>
